<?xml version="1.0" standalone="no"?>
<!DOCTYPE svg PUBLIC "-//W3C//DTD SVG 1.1//EN" "http://www.w3.org/Graphics/SVG/1.1/DTD/svg11.dtd" >
<svg xmlns="http://www.w3.org/2000/svg" xmlns:xlink="http://www.w3.org/1999/xlink" version="1.1">
<metadata>
Created by FontForge 20170731 at Mon Jun  6 22:12:45 2022
 By Aleksey,,,
Copyright (c) 2016 Swiss Typefaces. All rights reserved.
</metadata>
<defs>
<font id="SangBleuSans-Light" horiz-adv-x="516" >
  <font-face 
    font-family="SangBleu Sans"
    font-weight="300"
    font-stretch="normal"
    units-per-em="2048"
    panose-1="2 0 3 4 0 0 0 0 0 0"
    ascent="1638"
    descent="-410"
    x-height="985"
    cap-height="1612"
    bbox="-41 -643 2603 2042"
    underline-thickness="83"
    underline-position="-363"
    unicode-range="U+000D-FB02"
  />
<missing-glyph horiz-adv-x="1427" 
d="M205 0v1612h1018v-1612h-1018zM229 1591v-1571h969v1571h-969z" />
    <glyph glyph-name="fi" unicode="fi" horiz-adv-x="1130" 
d="M819 944h-463v-944h-106v944h-162v41h162v43q0 264 61 389q101 221 371 221q99 0 179.5 -32.5t80.5 -83.5q0 -29 -17 -45.5t-42 -16.5q-27 0 -47 14t-34.5 34t-32 40.5t-48 34.5t-72.5 14q-206 0 -268 -227q-25 -89 -25 -287v-98h570v-985h-107v944z" />
    <glyph glyph-name="fl" unicode="fl" horiz-adv-x="1140" 
d="M610 944h-254v-944h-106v944h-162v41h162v66q0 261 59 389q97 198 312 198q48 0 113 -9.5t106 -29.5l96 13v-1612h-107v1462q-26 5 -52.5 28.5t-46 47.5t-57 44t-85.5 20q-74 0 -123.5 -40.5t-79 -141t-29.5 -261.5v-174h254v-41z" />
    <glyph glyph-name="f_b" unicode="fb" horiz-adv-x="1841" 
d="M610 944h-254v-944h-106v944h-162v41h162v66q0 261 59 389q97 198 312 198q48 0 113 -9.5t106 -29.5l96 13v-1612h-107v1462q-26 5 -52.5 28.5t-46 47.5t-57 44t-85.5 20q-74 0 -123.5 -40.5t-79 -141t-29.5 -261.5v-174h254v-41zM1227 961q-73 0 -153.5 -27t-135.5 -74
q55 74 145.5 121t186.5 47q146 0 255.5 -70.5t164.5 -188.5t55 -265q0 -150 -55 -270t-162.5 -191.5t-251.5 -71.5q-198 0 -338 158q58 -42 137.5 -66t149.5 -24q131 0 223.5 63t136 166t43.5 236q0 203 -105.5 330t-295.5 127z" />
    <glyph glyph-name="f_f" unicode="ff" horiz-adv-x="1273" 
d="M848 0v944h-492v-944h-106v944h-162v41h162q1 141 16 226.5t43 146.5q97 198 312 198q100 0 179 -32t79 -82q0 -29 -15.5 -44.5t-40.5 -15.5q-27 0 -46 13.5t-32 32t-29 37.5t-45.5 32.5t-72.5 13.5q-115 0 -178.5 -99.5t-63.5 -334.5v-92h492v66q0 261 59 389
q97 198 312 198q100 0 179 -32t79 -82q0 -29 -15.5 -44.5t-40.5 -15.5q-27 0 -46 13.5t-32 32t-29 37.5t-45.5 32.5t-72.5 13.5q-115 0 -178.5 -99.5t-63.5 -334.5v-174h338v-41h-338v-944h-106z" />
    <glyph glyph-name="f_f_i" unicode="ffi" horiz-adv-x="1728" 
d="M954 0h-106v944h-492v-944h-106v944h-162v41h162q0 258 59 373q97 198 312 198q100 0 179 -32t79 -82q0 -29 -15.5 -44.5t-40.5 -15.5q-27 0 -46 13.5t-32 32t-29 37.5t-45.5 32.5t-72.5 13.5q-115 0 -178.5 -99.5t-63.5 -334.5v-92h492v43q0 264 61 389q101 221 371 221
q99 0 179.5 -32.5t80.5 -83.5q0 -29 -17 -45.5t-42 -16.5q-27 0 -47 14t-34.5 34t-32 40.5t-48 34.5t-72.5 14q-206 0 -268 -227q-25 -89 -25 -287v-98h570v-985h-107v944h-463v-944z" />
    <glyph glyph-name="f_f_l" unicode="ffl" horiz-adv-x="1738" 
d="M848 0v944h-492v-944h-106v944h-162v41h162q1 141 16 226.5t43 146.5q97 198 312 198q100 0 179 -32t79 -82q0 -29 -15.5 -44.5t-40.5 -15.5q-27 0 -46 13.5t-32 32t-29 37.5t-45.5 32.5t-72.5 13.5q-115 0 -178.5 -99.5t-63.5 -334.5v-92h492v66q0 261 59 389
q97 198 312 198q48 0 113 -9.5t106 -29.5l96 13v-1612h-107v1462q-26 5 -52.5 28.5t-46 47.5t-57 44t-85.5 20q-74 0 -123.5 -40.5t-79 -141t-29.5 -261.5v-174h254v-41h-254v-944h-106z" />
    <glyph glyph-name="f_h" unicode="fh" horiz-adv-x="1822" 
d="M1532 0v578q0 120 -17 186.5t-55 109.5q-70 76 -192 76q-123 0 -208 -66t-124 -175q34 155 133.5 237t233.5 82q158 0 245 -90q46 -49 68 -126.5t22 -211.5v-600h-106zM610 944h-254v-944h-106v944h-162v41h162v66q0 261 59 389q97 198 312 198q48 0 113 -9.5t106 -29.5
l96 13v-1612h-107v1462q-26 5 -52.5 28.5t-46 47.5t-57 44t-85.5 20q-74 0 -123.5 -40.5t-79 -141t-29.5 -261.5v-174h254v-41z" />
    <glyph glyph-name="f_k" unicode="fk" horiz-adv-x="1638" 
d="M1495 0l-555 526l559 459h96l-542 -426l585 -559h-143zM610 944h-254v-944h-106v944h-162v41h162v66q0 261 59 389q97 198 312 198q48 0 113 -9.5t106 -29.5l96 13v-1612h-107v1462q-26 5 -52.5 28.5t-46 47.5t-57 44t-85.5 20q-74 0 -123.5 -40.5t-79 -141t-29.5 -261.5
v-174h254v-41z" />
    <glyph glyph-name=".notdef" horiz-adv-x="1427" 
d="M205 0v1612h1018v-1612h-1018zM229 1591v-1571h969v1571h-969z" />
    <glyph glyph-name=".null" horiz-adv-x="0" 
 />
    <glyph glyph-name="uni000D" unicode="&#xd;" horiz-adv-x="491" 
 />
    <glyph glyph-name="space" unicode=" " horiz-adv-x="491" 
 />
    <glyph glyph-name="exclam" unicode="!" horiz-adv-x="485" 
d="M147 1620q44 20 89 20q49 0 88 -20q-23 -242 -48.5 -685t-35.5 -583h-11q-9 138 -22.5 398t-27.5 471.5t-32 398.5zM139 74q0 43 30 72.5t73 29.5t72.5 -29.5t29.5 -72.5t-29.5 -73t-72.5 -30t-73 30t-30 73z" />
    <glyph glyph-name="quotedbl" unicode="&#x22;" horiz-adv-x="665" 
d="M199 1161l-70 451h150l-72 -451h-8zM457 1161l-70 451h150l-72 -451h-8z" />
    <glyph glyph-name="numbersign" unicode="#" horiz-adv-x="1785" 
d="M1014 563l194 492h-452l-195 -492h453zM791 0l192 487h-453l-192 -487h-84l192 487h-354l41 76h344l195 492h-391l41 75h378l191 482h84l-191 -482h453l190 482h84l-190 -482h381l-41 -75h-369l-194 -492h415l-40 -76h-406l-193 -487h-83z" />
    <glyph glyph-name="dollar" unicode="$" horiz-adv-x="1228" 
d="M289 1176q0 -64 21.5 -116t62 -88t87 -61t107.5 -45v596q-128 -8 -203 -76.5t-75 -209.5zM643 727l-6 2v-704q171 7 262.5 99.5t91.5 235.5q0 148 -76.5 226t-271.5 141zM567 -197v168q-236 8 -417 131v299h18q20 -107 56.5 -180t90 -113.5t113 -58.5t139.5 -22v725
l-47 14q-340 108 -340 408q0 152 102.5 240t284.5 99v187h70v-187q120 -4 204 -29.5t173 -76.5v-293h-19q-26 171 -114 254t-244 94v-618l61 -21q64 -21 113.5 -41t106.5 -56t94.5 -78.5t62.5 -106t25 -140.5q0 -186 -121 -304.5t-342 -125.5v-168h-70z" />
    <glyph glyph-name="percent" unicode="%" horiz-adv-x="1820" 
d="M1497 1612l-1069 -1612h-90l1065 1612h94zM129 1227q0 166 93.5 268t242.5 102q148 0 242 -102.5t94 -267.5t-94 -268t-242 -103t-242 103t-94 268zM221 1227q0 -137 70 -216t174 -79t174 79t70 216t-70 216t-174 79t-174 -79t-70 -216zM1020 342q0 166 93.5 268.5
t242.5 102.5q148 0 242 -103t94 -268t-94 -268t-242 -103t-242 103t-94 268zM1112 342q0 -137 70 -216t174 -79t173.5 78.5t69.5 216.5t-69.5 216.5t-173.5 78.5t-174 -79t-70 -216z" />
    <glyph glyph-name="ampersand" unicode="&#x26;" horiz-adv-x="1763" 
d="M600 45q92 0 172.5 27.5t146 79t116.5 111t100 136.5l-453 490q-5 7 -15.5 17.5t-15.5 17.5q-219 -76 -319.5 -203t-100.5 -303q0 -167 99 -270t270 -103zM1501 0l-336 365q-72 -116 -146.5 -195.5t-150 -121.5t-145 -59.5t-150.5 -17.5q-210 0 -333 119t-123 299
q0 405 534 535q-110 125 -161.5 223.5t-51.5 191.5q0 143 98 223t244 80q150 0 238 -75t88 -213q0 -125 -97 -235.5t-255 -155.5q123 47 193.5 149.5t70.5 237.5q0 113 -63.5 183.5t-178.5 70.5q-109 0 -172 -63.5t-63 -170.5q0 -177 172 -364l475 -512l276 491h58
l-301 -528l424 -457h-144z" />
    <glyph glyph-name="quotesingle" unicode="'" horiz-adv-x="409" 
d="M201 1161l-70 451h150l-72 -451h-8z" />
    <glyph glyph-name="parenleft" unicode="(" horiz-adv-x="649" 
d="M664 -539h-91q-195 192 -298 479.5t-103 596.5t103 596t298 479h91q-207 -200 -310.5 -487t-103.5 -588t103.5 -588.5t310.5 -487.5z" />
    <glyph glyph-name="parenright" unicode=")" horiz-adv-x="657" 
d="M-14 1612h90q195 -192 298 -479t103 -596t-103 -596.5t-298 -479.5h-90q139 135 234 319t137 373t42 384t-42 384t-137 372.5t-234 318.5z" />
    <glyph glyph-name="asterisk" unicode="*" horiz-adv-x="763" 
d="M416 1612v-254l211 131l39 -64l-207 -129l217 -110l-37 -68l-223 119v-248h-72v248l-205 -127l-37 68l209 118l-211 121l39 64l205 -123v254h72z" />
    <glyph glyph-name="plus" unicode="+" horiz-adv-x="1187" 
d="M543 999h94v-434h442v-76h-442v-454h-94v454h-434v76h434v434z" />
    <glyph glyph-name="comma" unicode="," horiz-adv-x="413" 
d="M35 -397l178 565h152l-322 -565h-8z" />
    <glyph glyph-name="hyphen" unicode="-" horiz-adv-x="860" 
d="M129 481v84h602v-84h-602z" />
    <glyph glyph-name="period" unicode="." horiz-adv-x="393" 
d="M127 74q0 43 29.5 72.5t72.5 29.5t73 -29.5t30 -72.5t-30 -73t-73 -30t-72.5 30t-29.5 73z" />
    <glyph glyph-name="slash" unicode="/" horiz-adv-x="849" 
d="M813 1612l-666 -1680h-84l666 1680h84z" />
    <glyph glyph-name="zero" unicode="0" horiz-adv-x="1347" 
d="M674 -29q-264 0 -404.5 203t-140.5 574q0 373 139 571.5t406 198.5t406 -198.5t139 -571.5q0 -372 -139.5 -574.5t-405.5 -202.5zM674 1473q-95 0 -170.5 -39t-134.5 -122t-91 -226t-32 -338t32 -339t91 -228.5t134.5 -124.5t170.5 -40t170.5 40t134.5 124.5t91 228.5
t32 339t-32 338t-91 226t-134.5 122t-170.5 39z" />
    <glyph glyph-name="one" unicode="1" horiz-adv-x="765" 
d="M489 0h-106v1348q-60 -5 -158 -3t-157 9v6q321 20 405 158h16v-1518z" />
    <glyph glyph-name="two" unicode="2" horiz-adv-x="1159" 
d="M1073 82v-82h-1050l-7 12q110 96 167.5 147.5t149 138.5t159.5 159q86 90 144.5 162t110.5 155.5t77.5 169.5t25.5 176q0 144 -78.5 234t-222.5 90q-171 0 -270.5 -105.5t-92.5 -302.5h-8q-24 214 91 347t311 133q171 0 281 -105.5t110 -280.5q0 -277 -342 -622
q-140 -145 -500 -426h944z" />
    <glyph glyph-name="three" unicode="3" horiz-adv-x="1130" 
d="M461 -29q-85 0 -165 23.5t-133 58t-84.5 73t-31.5 69.5q0 29 18.5 44t45.5 15q16 0 29 -5t23.5 -18.5t16 -21.5t16 -29.5t13.5 -27.5q22 -41 50.5 -70t83 -49.5t128.5 -20.5q177 0 283 99.5t106 289.5q0 167 -117.5 261t-306.5 94q-90 0 -164 -21v15q101 45 173 83
t135 81t100.5 86.5t58.5 95.5t21 112q0 109 -71.5 172.5t-190.5 63.5q-132 0 -229 -69t-138 -197l-8 2q32 157 142.5 246.5t269.5 89.5q156 0 249 -79.5t93 -201.5q0 -132 -104.5 -235.5t-289.5 -168.5q94 2 180.5 -20.5t158.5 -69.5t114.5 -127.5t42.5 -183.5
q0 -204 -141 -331.5t-377 -127.5z" />
    <glyph glyph-name="four" unicode="4" horiz-adv-x="1318" 
d="M760 0v451h-707l-6 14l805 1091h14v-1024h375v-81h-375v-451h-106zM164 532h596v805z" />
    <glyph glyph-name="five" unicode="5" horiz-adv-x="1210" 
d="M342 1475h707l-17 -97h-647l-102 -540q124 110 338 110q211 0 335.5 -125.5t124.5 -326.5q0 -237 -137 -381t-375 -144q-100 0 -190.5 29t-147 70.5t-89.5 85t-33 75.5q0 29 17.5 44.5t47.5 15.5q13 0 25 -5t19 -10.5t16 -19t12.5 -20t12.5 -25.5t11 -23
q83 -174 295 -174q176 0 289 112t113 333q0 97 -32 173t-87 122.5t-124 70t-149 23.5q-253 0 -376 -199l-9 4z" />
    <glyph glyph-name="six" unicode="6" horiz-adv-x="1222" 
d="M1022 1565l2 -9q-252 -75 -425 -211.5t-258 -311t-93 -386.5q40 154 143.5 251t265.5 97q61 0 119.5 -15t117 -52t102.5 -92.5t71 -144t27 -199.5q0 -229 -132 -375t-350 -146q-101 0 -183.5 33.5t-137.5 91t-92 137t-53.5 167.5t-16.5 186q0 392 234 646.5t659 332.5z
M635 932q-118 0 -207.5 -66t-133.5 -169t-44 -224q0 -125 40.5 -226.5t124.5 -165t199 -63.5q88 0 158.5 37.5t114.5 101.5t67 147.5t23 178.5q0 89 -19 166.5t-58 142.5t-107 102.5t-158 37.5z" />
    <glyph glyph-name="seven" unicode="7" horiz-adv-x="1064" 
d="M995 1378h-909v97h987l6 -9l-938 -1572l-102 61z" />
    <glyph glyph-name="eight" unicode="8" horiz-adv-x="1247" 
d="M621 -29q-138 0 -247 44t-176 135t-67 217q0 297 401 413l-18 11q-61 32 -107.5 66.5t-89.5 83t-66.5 113.5t-23.5 142q0 136 110.5 232t293.5 96q193 0 296 -83.5t103 -215.5q0 -272 -352 -387l90 -45q76 -38 133.5 -77t108 -91.5t77.5 -119.5t27 -145q0 -55 -17.5 -109
t-56.5 -105t-95.5 -89.5t-140 -62t-183.5 -23.5zM606 874l72 -36q124 60 191 159t67 222q0 127 -84.5 193.5t-224.5 66.5q-143 0 -218 -72t-75 -193q0 -61 21.5 -113.5t62.5 -94t85 -72t103 -60.5zM623 18q177 0 277.5 84.5t100.5 233.5q0 122 -70 202t-224 156l-172 86
q-161 -60 -232.5 -161t-71.5 -252q0 -168 105.5 -258.5t286.5 -90.5z" />
    <glyph glyph-name="nine" unicode="9" horiz-adv-x="1222" 
d="M180 -80l-2 8q379 112 582 350.5t215 557.5q-39 -155 -141.5 -251t-264.5 -96q-59 0 -117 15t-117.5 52t-104 92.5t-73 144.5t-28.5 200q0 228 133 374t352 146q102 0 184 -33.5t136.5 -90.5t91 -136.5t52.5 -167t16 -186.5q0 -391 -242 -648t-672 -331zM588 553
q118 0 207.5 66t133.5 169t44 224q0 125 -40.5 226t-125 164.5t-199.5 63.5q-117 0 -200.5 -65t-122.5 -168.5t-39 -231.5q0 -89 19 -166.5t58 -142t107 -102t158 -37.5z" />
    <glyph glyph-name="colon" unicode=":" horiz-adv-x="413" 
d="M127 934q0 43 29.5 72.5t72.5 29.5t73 -29.5t30 -72.5t-30 -73t-73 -30t-72.5 30t-29.5 73zM127 74q0 43 29.5 72.5t72.5 29.5t73 -29.5t30 -72.5t-30 -73t-73 -30t-72.5 30t-29.5 73z" />
    <glyph glyph-name="semicolon" unicode=";" horiz-adv-x="434" 
d="M180 934q0 43 30 72.5t73 29.5t72.5 -29.5t29.5 -72.5t-29.5 -73t-72.5 -30t-73 30t-30 73zM35 -397l178 565h152l-322 -565h-8z" />
    <glyph glyph-name="less" unicode="&#x3c;" horiz-adv-x="1189" 
d="M225 520l938 -418v-94l-1034 467v88l1034 467v-94z" />
    <glyph glyph-name="equal" unicode="=" horiz-adv-x="1187" 
d="M129 672v76h930v-76h-930zM129 303v76h930v-76h-930z" />
    <glyph glyph-name="greater" unicode="&#x3e;" horiz-adv-x="1189" 
d="M25 102l938 418l-938 416v94l1034 -467v-88l-1034 -467v94z" />
    <glyph glyph-name="question" unicode="?" horiz-adv-x="813" 
d="M362 373l-4 -4q-17 17 -27.5 30t-28.5 42t-27 69.5t-9 89.5q0 93 36.5 178.5t88 153t103 136t88 156.5t36.5 185q0 102 -65.5 153.5t-153.5 51.5q-49 0 -85 -16t-56.5 -39t-38 -46t-39 -39t-49.5 -16q-25 0 -44 14t-19 39q0 60 98 99t219 39q145 0 243.5 -69.5
t98.5 -205.5q0 -64 -22 -128t-57 -119.5t-77 -111.5t-84.5 -114t-77.5 -116.5t-57 -129t-22 -143.5q0 -102 32 -139zM264 74q0 43 30 72.5t73 29.5t72.5 -29.5t29.5 -72.5t-29.5 -73t-72.5 -30t-73 30t-30 73z" />
    <glyph glyph-name="at" unicode="@" horiz-adv-x="1869" 
d="M1350 270q-77 0 -132 28t-81 76t-36 111t3 133q-39 -86 -87 -148t-97.5 -94t-94 -46.5t-88.5 -14.5q-125 0 -192.5 89t-67.5 221q0 160 72.5 304.5t195.5 232t261 87.5q63 0 130 -18t113 -60l74 74h14l-102 -526q-81 -391 129 -391q151 0 249.5 143.5t98.5 378.5
q0 332 -181 504t-527 172q-163 0 -307 -57.5t-250 -159.5t-168 -253t-62 -329q0 -225 100.5 -396.5t280 -263.5t410.5 -92q119 0 225 27l14 -47q-101 -29 -260 -29q-180 0 -334.5 56.5t-265.5 159t-174 253t-63 330.5q0 182 65 340.5t179 271.5t275.5 177.5t348.5 64.5
q129 0 241 -25t209 -81t166 -139.5t108.5 -206t39.5 -275.5q0 -259 -120 -420.5t-312 -161.5zM1104 618q0 5 10 51q6 34 11.5 61t19 95t29.5 146q11 71 3 117t-37 74t-60.5 39t-67.5 11q-68 0 -141.5 -44.5t-134 -119.5t-99.5 -184.5t-39 -228.5q0 -111 49.5 -170t138.5 -59
q168 0 318 212z" />
    <glyph glyph-name="A" unicode="A" horiz-adv-x="1341" 
d="M655 1436l-313 -832h627zM1198 0l-194 516h-695l-194 -516h-92l645 1690l651 -1690h-121z" />
    <glyph glyph-name="B" unicode="B" horiz-adv-x="1398" 
d="M246 1612h311q127 0 223 -11t177 -37.5t132.5 -69.5t80 -109.5t28.5 -155.5q0 -150 -112.5 -252.5t-297.5 -122.5q231 -5 369.5 -113.5t138.5 -296.5q0 -177 -92 -280q-86 -94 -238 -129t-403 -35h-317v1612zM360 1556v-688h203q260 0 383 94.5t123 262.5
q0 186 -121.5 258.5t-402.5 72.5h-185zM360 55h205q237 0 361 37t180 115q63 86 63 227q0 91 -29 160t-93 120t-171.5 77t-257.5 26h-258v-762z" />
    <glyph glyph-name="C" unicode="C" horiz-adv-x="1669" 
d="M1608 342v-188q-248 -183 -633 -183q-176 0 -323 46t-249 125.5t-173.5 186.5t-104.5 228t-33 252q0 253 112 444.5t310 293.5t451 102q353 0 624 -168v-193q-74 139 -243 221t-385 82q-109 0 -213.5 -28.5t-200.5 -91.5t-168.5 -153t-116 -223t-43.5 -292
q0 -150 43.5 -278.5t116.5 -218t169 -153.5t201.5 -94t213.5 -30q73 0 141.5 8.5t142.5 30t137.5 56t122.5 90.5t101 128z" />
    <glyph glyph-name="D" unicode="D" horiz-adv-x="1697" 
d="M246 1612h225q256 0 422 -24t285 -75q428 -179 428 -688q0 -362 -215 -577q-124 -124 -319.5 -186t-504.5 -62h-321v1612zM360 1554v-1497h172q297 0 486 55t297 181q166 193 166 528q0 473 -353 637q-114 54 -267.5 75t-401.5 21h-99z" />
    <glyph glyph-name="E" unicode="E" horiz-adv-x="1226" 
d="M246 0v1612h897v-62h-783v-669h705v-62h-705v-758h816v-61h-930z" />
    <glyph glyph-name="F" unicode="F" horiz-adv-x="1169" 
d="M360 0h-114v1612h903v-62h-789v-669h711v-62h-711v-819z" />
    <glyph glyph-name="G" unicode="G" horiz-adv-x="1742" 
d="M1487 668h112v-459q-168 -238 -618 -238q-184 0 -334.5 46.5t-252 125t-171 186.5t-100.5 227.5t-31 250.5q0 253 110 445t305.5 294.5t448.5 102.5q358 0 629 -168v-193q-72 138 -244 220.5t-389 82.5q-110 0 -213.5 -28t-199 -90t-166 -152.5t-112.5 -224t-42 -295.5
q0 -152 42.5 -280.5t115 -217.5t168.5 -152t202.5 -92.5t217.5 -29.5q394 0 522 174v465z" />
    <glyph glyph-name="H" unicode="H" horiz-adv-x="1724" 
d="M1364 1612h115v-1612h-115v821h-1004v-821h-114v1612h114v-727h1004v727z" />
    <glyph glyph-name="I" unicode="I" horiz-adv-x="606" 
d="M246 1612h114v-1612h-114v1612z" />
    <glyph glyph-name="J" unicode="J" horiz-adv-x="856" 
d="M526 1612h115v-1112q0 -83 -5 -147.5t-18.5 -127.5t-38 -107t-61.5 -78.5t-91.5 -51.5t-125.5 -17q-121 0 -201 56.5t-80 119.5q0 72 64 72q37 0 59 -21t35 -73q32 -115 135 -115q46 0 76.5 9.5t59 38t44 82.5t24.5 142.5t9 217.5v1112z" />
    <glyph glyph-name="K" unicode="K" horiz-adv-x="1415" 
d="M246 1612h114v-1612h-114v1612zM1386 0h-161l-863 823l822 789h104l-792 -756z" />
    <glyph glyph-name="L" unicode="L" horiz-adv-x="1189" 
d="M246 1612h114v-1551h830v-61h-944v1612z" />
    <glyph glyph-name="M" unicode="M" horiz-adv-x="1961" 
d="M1686 1677l102 -1677h-111l-82 1331l-614 -1169h-6l-621 1167l-82 -1329h-86l103 1677l702 -1317z" />
    <glyph glyph-name="N" unicode="N" horiz-adv-x="1759" 
d="M1427 1612h86v-1680l-1181 1457v-1389h-86v1677l1181 -1468v1403z" />
    <glyph glyph-name="O" unicode="O" horiz-adv-x="1918" 
d="M961 1649q245 0 441.5 -104t310.5 -298t114 -444q0 -188 -66.5 -345t-182 -263t-274.5 -165t-343 -59q-183 0 -343 61t-276 170t-183 267.5t-67 345.5q0 250 115 441.5t311.5 292t442.5 100.5zM961 29q105 0 207.5 27t199.5 88t170 149t117.5 221.5t44.5 294.5
q0 163 -44.5 297t-117.5 222.5t-170 149t-199 87t-208 26.5t-208 -26.5t-199.5 -87t-171 -149t-118.5 -222.5t-45 -297q0 -135 31 -251t86 -199.5t126.5 -148t155.5 -103.5t170 -58.5t173 -19.5z" />
    <glyph glyph-name="P" unicode="P" horiz-adv-x="1249" 
d="M360 1552v-811q123 -36 287 -36q95 0 177 23t151.5 72t110 136.5t40.5 204.5q0 214 -149 321q-142 102 -516 92zM246 1610l250 2q372 6 551 -99q206 -122 206 -364q0 -119 -44.5 -215.5t-119.5 -157t-169.5 -93t-198.5 -32.5q-200 0 -361 90v-741h-114v1610z" />
    <glyph glyph-name="Q" unicode="Q" horiz-adv-x="1902" 
d="M1466 -266l-252 270q-118 -33 -262 -33q-246 0 -441 104t-307 297.5t-112 442.5q0 189 65 346t179.5 263.5t273 165.5t342.5 59q183 0 341.5 -61t272.5 -170t179 -268t65 -347q0 -283 -141 -485.5t-383 -290.5l225 -244zM952 29q98 0 213 28l-194 209l51 49l215 -233
q94 38 171.5 99t140.5 149t98.5 210.5t35.5 268.5q0 163 -44 297t-116 222.5t-168 149t-197 87t-206 26.5q-106 0 -207 -26.5t-197.5 -87t-168.5 -149t-116 -222.5t-44 -297q0 -161 44 -294t116 -221.5t168 -149.5t198 -88t207 -27z" />
    <glyph glyph-name="R" unicode="R" horiz-adv-x="1492" 
d="M246 1610l311 4q113 2 206.5 -7.5t183 -37t150 -72.5t97.5 -119.5t37 -173.5q0 -194 -131 -302.5t-361 -119.5q212 -7 310.5 -92.5t140.5 -288.5q18 -86 35 -144t44 -115t60 -87.5t82 -45.5t111 -5l2 -4q-26 -12 -74.5 -20.5t-85.5 -8.5q-52 0 -92.5 18.5t-69.5 51
t-54 90t-43 120t-40 157.5q-15 68 -35 119t-43.5 88t-58.5 61.5t-69 39.5t-88 22.5t-102.5 9.5t-123.5 2h-185v-750h-114v1610zM360 1554v-753h179q85 0 158.5 9t150.5 35t131 68.5t88.5 114t34.5 166.5q0 196 -137 283.5t-402 81.5z" />
    <glyph glyph-name="S" unicode="S" horiz-adv-x="1263" 
d="M109 104v191q100 -146 228 -206t290 -60q194 0 313 96t119 248q0 81 -24.5 143.5t-78 111.5t-123.5 86.5t-174 76.5l-106 38q-212 76 -309 181t-97 243q0 185 134 290.5t344 105.5q260 0 460 -117v-191q-168 250 -462 250q-70 0 -132 -16.5t-116 -51t-85.5 -96.5
t-31.5 -145q0 -70 22.5 -124.5t69 -95t99.5 -68.5t131 -58l92 -35q47 -17 76 -28.5t75 -31.5t76 -36.5t70 -41.5t65 -49.5t53 -58t43.5 -68.5t26 -79t10.5 -92q0 -194 -146.5 -319.5t-397.5 -125.5q-295 0 -514 133z" />
    <glyph glyph-name="T" unicode="T" horiz-adv-x="1179" 
d="M1221 1612v-62h-574v-1550h-115v1550h-573v62h1262z" />
    <glyph glyph-name="U" unicode="U" horiz-adv-x="1667" 
d="M1368 1612h94v-826q0 -189 -14 -291.5t-45 -175.5q-70 -168 -215.5 -258t-356.5 -90q-456 0 -581 365q-24 69 -34.5 170.5t-10.5 312.5v793h114v-801q0 -204 10 -299t33 -158q54 -142 175 -215t299 -73q355 0 479 280q30 62 41.5 158t11.5 282v826z" />
    <glyph glyph-name="V" unicode="V" horiz-adv-x="1396" 
d="M1376 1612l-678 -1690l-678 1690h125l564 -1442l569 1442h98z" />
    <glyph glyph-name="W" unicode="W" horiz-adv-x="1908" 
d="M1794 1612h94l-481 -1690l-465 1200l-444 -1200l-478 1690h119l379 -1411l434 1208l455 -1208z" />
    <glyph glyph-name="X" unicode="X" horiz-adv-x="1488" 
d="M1331 0l-610 786l-610 -786h-91l656 846l-594 766h158l512 -672l520 672h90l-565 -729l671 -883h-137z" />
    <glyph glyph-name="Y" unicode="Y" horiz-adv-x="1275" 
d="M1163 1612h92l-557 -953v-659h-114v659l-564 953h136l501 -873z" />
    <glyph glyph-name="Z" unicode="Z" horiz-adv-x="1421" 
d="M205 61h1155v-61h-1340l1160 1550h-1006v62h1182z" />
    <glyph glyph-name="bracketleft" unicode="[" horiz-adv-x="653" 
d="M213 -537v2149h393v-66h-313v-2017h313v-66h-393z" />
    <glyph glyph-name="backslash" unicode="\" horiz-adv-x="843" 
d="M729 -68l-666 1680h82l666 -1680h-82z" />
    <glyph glyph-name="bracketright" unicode="]" horiz-adv-x="653" 
d="M440 1612v-2149h-393v66h313v2017h-313v66h393z" />
    <glyph glyph-name="asciicircum" unicode="^" horiz-adv-x="1150" 
d="M510 1675h96l416 -850h-109l-356 738l-324 -738h-104z" />
    <glyph glyph-name="underscore" unicode="_" horiz-adv-x="1652" 
d="M150 -84v84h1353v-84h-1353z" />
    <glyph glyph-name="grave" unicode="`" horiz-adv-x="481" 
d="M469 1217l-391 397h164l237 -397h-10z" />
    <glyph glyph-name="a" unicode="a" horiz-adv-x="1005" 
d="M696 160q-111 -189 -321 -189q-131 0 -209 71t-78 177q0 105 79.5 174.5t214.5 101.5t325 35l2 105q5 173 -48.5 259.5t-183.5 86.5q-98 0 -159.5 -46.5t-45.5 -139.5q6 -39 -9 -66t-46 -27q-63 0 -63 78q0 101 99.5 173.5t229.5 72.5q180 0 256.5 -88.5t71.5 -280.5
l-10 -510q-3 -98 80 -98q31 0 62.5 19t47.5 53l4 -2q-38 -133 -151 -133q-75 0 -111 41.5t-35 136.5l9 338q-245 -4 -372.5 -72.5t-127.5 -191.5q0 -98 62.5 -148.5t150.5 -50.5q167 0 276 121z" />
    <glyph glyph-name="b" unicode="b" horiz-adv-x="1216" 
d="M205 0v1612h106v-1612h-106zM602 961q-73 0 -153.5 -27t-135.5 -74q55 74 145.5 121t186.5 47q146 0 255.5 -70.5t164.5 -188.5t55 -265q0 -150 -55 -270t-162.5 -191.5t-251.5 -71.5q-198 0 -338 158q58 -42 137.5 -66t149.5 -24q131 0 224 63t136.5 166t43.5 236
q0 203 -106 330t-296 127z" />
    <glyph glyph-name="c" unicode="c" horiz-adv-x="983" 
d="M211 522q0 -222 111.5 -349.5t281.5 -127.5q218 0 344 115l4 -4q-139 -185 -377 -185q-212 0 -345.5 147t-133.5 392q0 231 140.5 371.5t353.5 140.5q74 0 150.5 -19.5t129 -54.5t52.5 -74q0 -27 -14.5 -44t-43.5 -17q-27 0 -44 17t-29.5 41t-31.5 48t-62.5 41t-110.5 17
q-168 0 -271.5 -122.5t-103.5 -332.5z" />
    <glyph glyph-name="d" unicode="d" horiz-adv-x="1214" 
d="M1010 1612v-1612h-107v1612h107zM580 1028q95 0 181 -46.5t142 -121.5q-55 48 -131.5 74.5t-148.5 26.5q-190 0 -300 -129.5t-110 -331.5q0 -201 108.5 -331t303.5 -130q69 0 144 24t134 66q-143 -158 -330 -158q-144 0 -253.5 70.5t-166.5 190t-57 268.5
q0 145 57.5 264.5t169.5 191.5t257 72z" />
    <glyph glyph-name="e" unicode="e" horiz-adv-x="1062" 
d="M590 989q-146 0 -237.5 -83.5t-123.5 -225.5h654q-3 102 -44.5 173.5t-105 103.5t-143.5 32zM983 174l4 -4q-137 -199 -399 -199q-218 0 -355 148.5t-137 400.5q0 224 141.5 369t348.5 145q178 0 288.5 -107t124.5 -288h-778q-8 -52 -8 -115q0 -210 110.5 -344.5
t309.5 -134.5q224 0 350 129z" />
    <glyph glyph-name="f" unicode="f" horiz-adv-x="675" 
d="M694 944h-338v-944h-106v944h-162v41h162v66q0 261 59 389q97 198 312 198q100 0 179 -32t79 -82q0 -29 -15.5 -44.5t-40.5 -15.5q-27 0 -46 13.5t-32 32t-29 37.5t-45.5 32.5t-72.5 13.5q-115 0 -178.5 -99.5t-63.5 -334.5v-174h338v-41z" />
    <glyph glyph-name="g" unicode="g" horiz-adv-x="1155" 
d="M848 668q0 134 -79 221.5t-216 87.5q-134 0 -210.5 -83.5t-76.5 -225.5q0 -144 82 -227t205 -83q127 0 211 82.5t84 227.5zM1098 -166q0 -97 -43.5 -171.5t-119.5 -119t-171 -66.5t-205 -22q-228 0 -360.5 81.5t-132.5 203.5q0 93 92 160t252 92q-127 0 -192.5 45
t-65.5 115q0 74 77 119t220 59q-142 29 -222 118.5t-80 219.5q0 171 111.5 259.5t294.5 88.5q101 0 199 -49l403 12v-86l-367 51q77 -46 125 -117t48 -159q0 -161 -113.5 -255t-294.5 -94q-53 0 -102 11q-92 -17 -141.5 -52.5t-49.5 -82.5q0 -101 199 -101h180
q106 0 185.5 -12.5t143.5 -41t97 -80.5t33 -126zM174 -260q0 -112 101.5 -181t277.5 -69q80 0 155.5 15t144 46t110 88t41.5 132q0 110 -83 165.5t-288 55.5h-223q-123 -43 -179.5 -102.5t-56.5 -149.5z" />
    <glyph glyph-name="h" unicode="h" horiz-adv-x="1198" 
d="M205 1612h106v-1612h-106v1612zM907 0v571q0 120 -16.5 187.5t-54.5 109.5q-70 76 -193 76t-208 -66t-124 -176q34 155 133.5 237.5t233.5 82.5q159 0 246 -90q46 -49 68 -126.5t22 -211.5v-594h-107z" />
    <glyph glyph-name="i" unicode="i" 
d="M174 1425q0 35 24.5 59.5t59.5 24.5t59.5 -24.5t24.5 -59.5t-24.5 -59.5t-59.5 -24.5t-59.5 24.5t-24.5 59.5zM205 0v985h106v-985h-106z" />
    <glyph glyph-name="j" unicode="j" horiz-adv-x="507" 
d="M166 1425q0 35 24.5 59.5t59.5 24.5t59.5 -24.5t24.5 -59.5t-24.5 -59.5t-59.5 -24.5t-59.5 24.5t-24.5 59.5zM197 985h106v-825q0 -495 -278 -721l-5 6q59 62 97 150t54 193.5t21 185.5t5 186v825z" />
    <glyph glyph-name="k" unicode="k" horiz-adv-x="1013" 
d="M205 1612h106v-1612h-106v1612zM870 0l-555 526l559 459h97l-543 -426l586 -559h-144z" />
    <glyph glyph-name="l" unicode="l" 
d="M205 1612h106v-1612h-106v1612z" />
    <glyph glyph-name="m" unicode="m" horiz-adv-x="1845" 
d="M1661 0h-107v664q0 130 -63 204t-197 74q-107 0 -189.5 -61.5t-119.5 -157.5q40 146 131 221.5t217 75.5q164 0 246 -91.5t82 -262.5v-666zM881 0v664q0 130 -63 204t-197 74q-107 0 -190 -61.5t-120 -157.5q40 146 131 221.5t217 75.5q164 0 246 -91.5t82 -262.5v-666
h-106zM205 985h106v-985h-106v985z" />
    <glyph glyph-name="n" unicode="n" horiz-adv-x="1198" 
d="M907 0v571q0 120 -16.5 187.5t-54.5 109.5q-70 76 -193 76t-208 -66t-124 -176q34 155 133.5 237.5t233.5 82.5q159 0 246 -90q46 -49 68 -126.5t22 -211.5v-594h-107zM205 0v985h106v-985h-106z" />
    <glyph glyph-name="o" unicode="o" horiz-adv-x="1204" 
d="M96 504q0 240 141.5 385t364.5 145t364.5 -145t141.5 -385q0 -239 -142 -386t-364 -147q-223 0 -364.5 146t-141.5 387zM602 18q92 0 168 42.5t123 112.5t72.5 155.5t25.5 175.5q0 92 -25.5 177t-72.5 154t-122.5 110.5t-168.5 41.5q-121 0 -211.5 -70.5t-134 -178.5
t-43.5 -234q0 -92 25.5 -177.5t72.5 -155t122.5 -111.5t168.5 -42z" />
    <glyph glyph-name="p" unicode="p" horiz-adv-x="1216" 
d="M311 -537h-106v1522h106v-1522zM602 961q-73 0 -153.5 -27t-135.5 -74q55 74 145.5 121t186.5 47q146 0 255.5 -70.5t164.5 -188.5t55 -265q0 -150 -55 -270t-162.5 -191.5t-251.5 -71.5q-198 0 -338 158q58 -42 137.5 -66t149.5 -24q99 0 177 36.5t127 100.5t74.5 147.5
t25.5 180.5q0 203 -106 330t-296 127z" />
    <glyph glyph-name="q" unicode="q" horiz-adv-x="1214" 
d="M903 985h107v-1522h-107v1522zM580 1028q95 0 181 -46.5t142 -121.5q-55 48 -131.5 74.5t-148.5 26.5q-190 0 -300 -129.5t-110 -331.5q0 -201 108.5 -331t303.5 -130q69 0 144 24t134 66q-143 -158 -330 -158q-144 0 -253.5 70t-166.5 189.5t-57 269.5q0 145 57.5 264.5
t169.5 191.5t257 72z" />
    <glyph glyph-name="r" unicode="r" horiz-adv-x="727" 
d="M205 0v985h106v-985h-106zM676 1010v-125q-31 8 -80 8q-93 0 -169.5 -47t-115.5 -141q28 105 87 177.5t130 102.5t148 25z" />
    <glyph glyph-name="s" unicode="s" horiz-adv-x="913" 
d="M176 203q24 0 39.5 -14t32.5 -48t22 -41q56 -86 187 -86q120 0 190 55t70 154q0 51 -17.5 89.5t-54.5 66.5t-78 46.5t-104 39.5l-68 22q-141 48 -200.5 115.5t-59.5 163.5q0 111 88 185.5t242 74.5q131 0 224 -46t93 -108q0 -53 -51 -53q-21 0 -34.5 11.5t-30 41.5
t-21.5 37q-48 74 -188 74q-104 0 -166 -52.5t-62 -135.5q0 -84 55.5 -132.5t164.5 -84.5l61 -21q169 -57 238 -124.5t69 -174.5q0 -128 -101 -207.5t-261 -79.5q-147 0 -244.5 52t-97.5 116t63 64z" />
    <glyph glyph-name="t" unicode="t" horiz-adv-x="714" 
d="M453 -29q-99 0 -157 55t-58 167v751h-166v41h166v229l104 82v-311h320v-41h-320v-729q0 -95 37.5 -136.5t118.5 -41.5q103 0 188 59l4 -6q-104 -119 -237 -119z" />
    <glyph glyph-name="u" unicode="u" horiz-adv-x="1171" 
d="M860 0v985h107v-985h-107zM184 985h107v-657q0 -130 63 -204.5t197 -74.5q107 0 189.5 61.5t119.5 157.5q-40 -146 -131 -221.5t-217 -75.5q-164 0 -246 92t-82 263v659z" />
    <glyph glyph-name="v" unicode="v" horiz-adv-x="915" 
d="M821 985h84l-434 -1040h-25l-436 1040h119l348 -856z" />
    <glyph glyph-name="w" unicode="w" horiz-adv-x="1325" 
d="M1221 985h88l-369 -1040h-20l-254 735l-260 -735h-21l-369 1040h117l277 -829l274 798l260 -798z" />
    <glyph glyph-name="x" unicode="x" horiz-adv-x="974" 
d="M840 0l-363 457l-395 -457h-72l434 500l-385 485h127l324 -410l354 410h72l-391 -453l420 -532h-125z" />
    <glyph glyph-name="y" unicode="y" horiz-adv-x="974" 
d="M442 31l-411 954h121l354 -846l368 846h91l-676 -1522h-82z" />
    <glyph glyph-name="z" unicode="z" horiz-adv-x="931" 
d="M201 49h676v-49h-836l688 930h-594v55h756z" />
    <glyph glyph-name="braceleft" unicode="{" horiz-adv-x="608" 
d="M27 539v8q126 22 182.5 103t56.5 214q0 75 -39 214.5t-39 217.5q0 316 355 316h39v-66h-56q-138 0 -198 -69.5t-60 -178.5q0 -74 39 -217t39 -223q0 -110 -39.5 -188t-132.5 -127q172 -95 172 -328q0 -78 -39 -220.5t-39 -219.5q0 -109 60 -178.5t198 -69.5h56v-66h-39
q-191 0 -273 82t-82 234q0 71 39 212t39 220q0 135 -57.5 221.5t-181.5 108.5z" />
    <glyph glyph-name="bar" unicode="|" horiz-adv-x="331" 
d="M129 0v1612h80v-1612h-80z" />
    <glyph glyph-name="braceright" unicode="}" horiz-adv-x="608" 
d="M582 547v-8q-124 -22 -182 -109t-58 -221q0 -79 39 -220t39 -212q0 -152 -81.5 -234t-272.5 -82h-39v66h55q138 0 198 69.5t60 178.5q0 77 -39 219.5t-39 220.5q0 233 172 328q-93 49 -132.5 127t-39.5 188q0 80 39 223t39 217q0 109 -60 178.5t-198 69.5h-55v66h39
q190 0 272 -83.5t82 -232.5q0 -78 -39 -217.5t-39 -214.5q0 -274 240 -317z" />
    <glyph glyph-name="asciitilde" unicode="~" horiz-adv-x="1402" 
d="M401 653q69 0 154.5 -33.5t153 -73t149 -73t141.5 -33.5q67 0 117 40t90 132l76 -30q-40 -114 -113 -168t-168 -54q-72 0 -158.5 33t-153.5 72.5t-146.5 72.5t-139.5 33q-70 0 -119 -42t-87 -138l-76 35q40 115 113 171t167 56z" />
    <glyph glyph-name="uni00A0" unicode="&#xa0;" horiz-adv-x="491" 
 />
    <glyph glyph-name="exclamdown" unicode="&#xa1;" horiz-adv-x="485" 
d="M139 932q0 43 30 72.5t73 29.5t72.5 -29.5t29.5 -72.5t-29.5 -73t-72.5 -30t-73 30t-30 73zM336 -614q-46 -21 -88 -21q-48 0 -88 21q23 242 48.5 684.5t35.5 582.5h10q9 -138 22.5 -398t27.5 -471t32 -398z" />
    <glyph glyph-name="cent" unicode="&#xa2;" horiz-adv-x="989" 
d="M954 166l4 -4q-68 -103 -154 -144.5t-196 -46.5v-182h-71v184q-199 17 -320 163t-121 376q0 215 123 355t318 161v199h71v-195q69 0 144 -23t126.5 -60.5t51.5 -74.5q0 -26 -15.5 -43.5t-44.5 -17.5q-24 0 -39.5 12.5t-22.5 32t-20.5 41.5t-31 41.5t-55.5 32t-93 12.5
v-940h2q223 0 344 121zM211 524q0 -197 91 -322t235 -151v930q-151 -24 -238.5 -144t-87.5 -313z" />
    <glyph glyph-name="sterling" unicode="&#xa3;" horiz-adv-x="1339" 
d="M1171 168l5 -2q-98 -195 -242 -195q-40 0 -83 16.5t-77 37t-91.5 37t-123.5 16.5q-74 0 -140.5 -16.5t-107.5 -35.5t-105 -32t-138 -8v26h57q104 0 169.5 158.5t65.5 419.5q0 87 -8 155h-241v50h235q-20 180 -20 278q0 107 27 188.5t68.5 128t100 75.5t112 38.5
t114.5 9.5q130 0 241 -41.5t111 -95.5q0 -28 -15.5 -42.5t-40.5 -14.5q-35 0 -59 16t-42 39t-41 46t-68.5 39t-112.5 16q-149 0 -217 -86t-68 -252q0 -64 15 -180t18 -162h438v-50h-434v-36q0 -134 -23 -252.5t-61.5 -202.5t-81 -142.5t-88.5 -93.5q227 166 381 166
q57 0 115 -19.5t98 -43t85.5 -43t80.5 -19.5q106 0 192 109z" />
    <glyph glyph-name="yen" unicode="&#xa5;" horiz-adv-x="1525" 
d="M1245 1475h84l-512 -828h277v-69h-291v-183h291v-69h-291v-326h-115v326h-291v69h291v183h-291v69h265l-469 828h133l442 -809z" />
    <glyph glyph-name="brokenbar" unicode="&#xa6;" horiz-adv-x="600" 
d="M252 756v856h80v-856h-80zM252 -537v856h80v-856h-80z" />
    <glyph glyph-name="section" unicode="&#xa7;" horiz-adv-x="946" 
d="M479 600l72 -20q82 5 145.5 68t63.5 157q0 100 -66 159t-200 93l-13 4q-121 -10 -184.5 -69t-63.5 -156q0 -92 65.5 -148t180.5 -88zM485 -29q-152 0 -264 56.5t-112 117.5q0 62 57 62q22 0 39.5 -11.5t25.5 -23.5t20.5 -35.5t18.5 -32.5q30 -46 88 -70t129 -24
q133 0 209 63t76 165q0 97 -70 153.5t-208 97.5l-91 27q-264 81 -264 287q0 55 19.5 99.5t52 73.5t77 48.5t92 28t99.5 8.5l-76 20q-264 68 -264 289q0 117 92 192.5t254 75.5q142 0 233 -54t91 -111q0 -29 -14.5 -45.5t-38.5 -16.5q-23 0 -37 12t-29.5 41.5t-23.5 40.5
q-61 94 -189 94q-116 0 -180 -54t-64 -152q0 -47 18.5 -84.5t54 -63.5t76.5 -44t97 -34l70 -20q165 -45 237 -119.5t72 -179.5q0 -125 -81.5 -194t-225.5 -74l14 -5q305 -84 305 -303q0 -133 -109.5 -217t-275.5 -84z" />
    <glyph glyph-name="dieresis" unicode="&#xa8;" horiz-adv-x="946" 
d="M625 1407q0 31 21 52.5t52 21.5t52.5 -21.5t21.5 -52.5t-21.5 -52.5t-52.5 -21.5t-52 21.5t-21 52.5zM188 1407q0 31 21.5 52.5t52.5 21.5t52.5 -21.5t21.5 -52.5t-21.5 -52.5t-52.5 -21.5t-52.5 21.5t-21.5 52.5z" />
    <glyph glyph-name="copyright" unicode="&#xa9;" horiz-adv-x="1886" 
d="M129 784q0 167 64 318t173 260t259.5 173t316.5 64q167 0 318 -64t260 -173t173 -260t64 -318q0 -166 -64 -316.5t-173 -259.5t-260 -173t-318 -64q-166 0 -316.5 64t-259.5 173t-173 259.5t-64 316.5zM203 784q0 -152 58 -290.5t156.5 -239t235.5 -160t289 -59.5
q204 0 374.5 101t267.5 273t97 375q0 153 -57.5 292t-155.5 240t-235.5 160.5t-290.5 59.5q-152 0 -289 -59.5t-235.5 -160.5t-156.5 -240t-58 -292zM1339 575v-176q-144 -108 -381 -108q-134 0 -237.5 42.5t-165.5 115t-93.5 162t-31.5 190.5q0 235 146 375.5t382 140.5
q207 0 373 -94v-179h-14q-25 62 -67.5 109t-92.5 72.5t-100 38t-101 12.5q-78 0 -149 -28t-130.5 -83.5t-94.5 -150t-35 -217.5q0 -114 34.5 -205t92.5 -146.5t129.5 -84.5t150.5 -29q58 0 106 9.5t99.5 34t94 75t71.5 124.5h14z" />
    <glyph glyph-name="ordfeminine" unicode="&#xaa;" horiz-adv-x="843" 
d="M381 1018q86 0 147 55v217q-123 0 -196.5 -41.5t-73.5 -124.5q0 -106 123 -106zM264 1430q-41 0 -41 49q0 61 57.5 97t125.5 36q104 0 150 -39t46 -119v-352q0 -45 8.5 -63.5t36.5 -18.5q45 0 64 41l4 -2q-7 -48 -39 -67t-64 -19q-84 0 -84 98q-73 -102 -184 -102
q-79 0 -122.5 42.5t-43.5 106.5q0 95 92 141t258 46v174q0 57 -33.5 84.5t-86.5 27.5q-49 0 -81 -23t-28 -71q7 -67 -35 -67z" />
    <glyph glyph-name="guillemotleft" unicode="&#xab;" horiz-adv-x="917" 
d="M483 70l-436 428v8l434 426h25l-307 -430l307 -432h-23zM807 70l-436 428v8l434 426h24l-307 -430l307 -432h-22z" />
    <glyph glyph-name="logicalnot" unicode="&#xac;" horiz-adv-x="1249" 
d="M106 459v76h973v-535h-94v459h-879z" />
    <glyph glyph-name="uni00AD" unicode="&#xad;" horiz-adv-x="860" 
d="M129 481v84h602v-84h-602z" />
    <glyph glyph-name="registered" unicode="&#xae;" horiz-adv-x="1886" 
d="M129 784q0 167 64 318t173 260t259.5 173t316.5 64q167 0 318 -64t260 -173t173 -260t64 -318q0 -166 -64 -316.5t-173 -259.5t-260 -173t-318 -64q-166 0 -316.5 64t-259.5 173t-173 259.5t-64 316.5zM203 784q0 -152 58 -290.5t156.5 -239t235.5 -160t289 -59.5
q204 0 374.5 101t267.5 273t97 375q0 153 -57.5 292t-155.5 240t-235.5 160.5t-290.5 59.5q-152 0 -289 -59.5t-235.5 -160.5t-156.5 -240t-58 -292zM659 1296h191q68 0 118 -4t103 -18.5t86 -39.5t54.5 -68.5t21.5 -104.5q0 -93 -67 -159t-183 -83q99 -20 156.5 -73
t87.5 -148q13 -45 20 -69t18.5 -55t21.5 -45.5t25.5 -31.5t33.5 -23.5t41.5 -10.5t54.5 -3l2 -16q-47 -12 -103 -12q-99 0 -147 60t-82 194q-30 117 -106.5 165t-190.5 48h-55v-451h-101v948zM760 1260v-431h63q53 0 94 5t81.5 20t67 39t42.5 64.5t16 95.5q0 222 -297 209z
" />
    <glyph glyph-name="overscore" unicode="&#xaf;" horiz-adv-x="942" 
d="M150 1348v65h643v-65h-643z" />
    <glyph glyph-name="degree" unicode="&#xb0;" horiz-adv-x="761" 
d="M88 1358q0 122 85 206.5t208 84.5t208 -84.5t85 -206.5t-85 -206.5t-208 -84.5t-208 84.5t-85 206.5zM178 1358q0 -83 57 -148t146 -65q93 0 148 62.5t55 150.5q0 90 -57 151.5t-146 61.5q-81 0 -142 -62t-61 -151z" />
    <glyph glyph-name="plusminus" unicode="&#xb1;" horiz-adv-x="1187" 
d="M1081 547h-440v-369h-94v369h-438v76h438v378h94v-378h440v-76zM109 0v76h972v-76h-972z" />
    <glyph glyph-name="acute" unicode="&#xb4;" horiz-adv-x="481" 
d="M479 1612l-391 -398h-10l237 398h164z" />
    <glyph glyph-name="mu" unicode="&#xb5;" horiz-adv-x="1142" 
d="M205 985h94v-555q0 -122 15 -179.5t48 -100.5q77 -84 201 -84q88 0 164 57.5t117 155.5v706h94v-985h-90v160q-47 -92 -122.5 -140.5t-168.5 -48.5q-75 0 -144.5 31t-113.5 100v-639h-94v1522z" />
    <glyph glyph-name="paragraph" unicode="&#xb6;" horiz-adv-x="1200" 
d="M1030 1546h-174v-1786h-82v1786h-160v-1786h-82v1039q-186 0 -315 111.5t-129 293.5q0 60 14 115t50 109.5t92 94.5t147 64.5t207 24.5h432v-66z" />
    <glyph glyph-name="middot" unicode="&#xb7;" horiz-adv-x="520" 
d="M158 526q0 43 29.5 73t72.5 30t72.5 -30t29.5 -73t-29.5 -72.5t-72.5 -29.5t-72.5 29.5t-29.5 72.5z" />
    <glyph glyph-name="cedilla" unicode="&#xb8;" horiz-adv-x="626" 
d="M264 -8h62l-109 -172q54 41 125 41q70 0 113 -37t43 -109q0 -55 -33 -99t-88 -71.5t-116 -44t-128 -22.5l-6 12q137 16 204.5 76.5t67.5 136.5q0 48 -25.5 75t-72.5 27q-54 0 -94 -28l-49 39z" />
    <glyph glyph-name="ordmasculine" unicode="&#xba;" horiz-adv-x="876" 
d="M129 1290q0 139 86.5 230.5t222.5 91.5q133 0 221.5 -92t88.5 -230t-88.5 -229.5t-221.5 -91.5q-136 0 -222.5 90t-86.5 231zM438 991q105 0 164.5 80.5t59.5 218.5t-59.5 218.5t-164.5 80.5t-165 -79.5t-60 -219.5q0 -137 60 -218t165 -81z" />
    <glyph glyph-name="guillemotright" unicode="&#xbb;" horiz-adv-x="917" 
d="M547 498l-436 -428h-23l307 432l-307 430h25l434 -426v-8zM870 498l-436 -428h-22l307 432l-307 430h24l434 -426v-8z" />
    <glyph glyph-name="questiondown" unicode="&#xbf;" horiz-adv-x="813" 
d="M326 932q0 43 29.5 72.5t72.5 29.5t72.5 -29.5t29.5 -72.5t-29.5 -73t-72.5 -30t-72.5 30t-29.5 73zM432 633l4 4q18 -18 28 -30t28 -41t27 -69.5t9 -90.5q0 -93 -36.5 -178.5t-88 -153t-103 -136t-88 -156.5t-36.5 -185q0 -102 65.5 -153.5t153.5 -51.5q49 0 85 16
t57 39t38.5 45.5t39 38.5t49.5 16q25 0 44 -14t19 -39q0 -40 -48 -72t-119.5 -48.5t-149.5 -16.5q-93 0 -168 27t-124.5 91t-49.5 156q0 87 41 175t99 164.5t116.5 154.5t99.5 174t41 195q0 101 -33 139z" />
    <glyph glyph-name="Agrave" unicode="&#xc0;" horiz-adv-x="1341" 
d="M831 1694l-403 221h164l262 -221h-23zM655 1436l-313 -832h627zM1198 0l-194 516h-695l-194 -516h-92l645 1690l651 -1690h-121z" />
    <glyph glyph-name="Aacute" unicode="&#xc1;" horiz-adv-x="1341" 
d="M934 1915l-404 -221h-22l262 221h164zM655 1436l-313 -832h627zM1198 0l-194 516h-695l-194 -516h-92l645 1690l651 -1690h-121z" />
    <glyph glyph-name="Acircumflex" unicode="&#xc2;" horiz-adv-x="1341" 
d="M674 1923l280 -229h-24l-260 137l-258 -137h-23l279 229h6zM655 1436l-313 -832h627zM1198 0l-194 516h-695l-194 -516h-92l645 1690l651 -1690h-121z" />
    <glyph glyph-name="Atilde" unicode="&#xc3;" horiz-adv-x="1341" 
d="M936 1835l72 96l10 -6l-72 -180h-508l-76 -94l-10 6l76 178h508zM655 1436l-313 -832h627zM1198 0l-194 516h-695l-194 -516h-92l645 1690l651 -1690h-121z" />
    <glyph glyph-name="Adieresis" unicode="&#xc4;" horiz-adv-x="1341" 
d="M817 1806q0 31 21.5 52.5t52.5 21.5t52.5 -21.5t21.5 -52.5t-21.5 -52t-52.5 -21t-52.5 21t-21.5 52zM381 1806q0 31 21.5 52.5t52.5 21.5t52 -21.5t21 -52.5t-21 -52t-52 -21t-52.5 21t-21.5 52zM655 1436l-313 -832h627zM1198 0l-194 516h-695l-194 -516h-92l645 1690
l651 -1690h-121z" />
    <glyph glyph-name="Aring" unicode="&#xc5;" horiz-adv-x="1341" 
d="M811 1841q0 64 -43 106t-102 42q-62 0 -103 -43.5t-41 -104.5t41 -104t103 -43q66 0 105.5 42.5t39.5 104.5zM655 1436l-313 -832h627zM1198 0l-194 516h-695l-194 -516h-92l626 1640q-80 6 -136 64t-56 137q0 84 61 142.5t148 58.5t147.5 -58.5t60.5 -142.5
q0 -79 -54.5 -136t-133.5 -65l633 -1640h-121z" />
    <glyph glyph-name="AE" unicode="&#xc6;" horiz-adv-x="2123" 
d="M1108 1518l-408 -617h408v617zM1108 0v840h-446l-556 -840h-83l1085 1612h932v-62h-809v-649h731v-61h-731v-779h842v-61h-965z" />
    <glyph glyph-name="Ccedilla" unicode="&#xc7;" horiz-adv-x="1669" 
d="M1120 -311q0 -55 -33 -99.5t-87.5 -72t-115.5 -44t-128 -22.5l-6 12q137 16 204.5 76.5t67.5 136.5q0 48 -25.5 75.5t-72.5 27.5q-53 0 -95 -29l-49 39l99 186q-157 11 -288 63t-222 132t-154.5 183.5t-93 218.5t-29.5 237q0 253 112 444.5t310 293.5t451 102
q353 0 624 -168v-193q-74 139 -243 221t-385 82q-109 0 -213.5 -28.5t-200.5 -91.5t-168.5 -153t-116 -223t-43.5 -292q0 -150 43.5 -278.5t116.5 -218t169 -153.5t201.5 -94t213.5 -30q73 0 141.5 8.5t142.5 30t137.5 56t122.5 90.5t101 128v-188q-248 -183 -633 -183h-37
l-98 -178q54 41 125 41q70 0 112.5 -36.5t42.5 -108.5z" />
    <glyph glyph-name="Egrave" unicode="&#xc8;" horiz-adv-x="1226" 
d="M831 1694l-403 221h164l262 -221h-23zM246 0v1612h897v-62h-783v-669h705v-62h-705v-758h816v-61h-930z" />
    <glyph glyph-name="Eacute" unicode="&#xc9;" horiz-adv-x="1226" 
d="M995 1915l-403 -221h-23l262 221h164zM246 0v1612h897v-62h-783v-669h705v-62h-705v-758h816v-61h-930z" />
    <glyph glyph-name="Ecircumflex" unicode="&#xca;" horiz-adv-x="1226" 
d="M702 1923l281 -229h-25l-260 137l-258 -137h-22l278 229h6zM246 0v1612h897v-62h-783v-669h705v-62h-705v-758h816v-61h-930z" />
    <glyph glyph-name="Edieresis" unicode="&#xcb;" horiz-adv-x="1226" 
d="M418 1806q0 31 21.5 52.5t52.5 21.5t52 -21.5t21 -52.5t-21 -52t-52 -21t-52.5 21t-21.5 52zM854 1806q0 31 21.5 52.5t52.5 21.5t52 -21.5t21 -52.5t-21 -52t-52 -21t-52.5 21t-21.5 52zM246 0v1612h897v-62h-783v-669h705v-62h-705v-758h816v-61h-930z" />
    <glyph glyph-name="Igrave" unicode="&#xcc;" horiz-adv-x="897" 
d="M684 1694l-403 221h163l263 -221h-23zM459 1612h114v-1612h-114v1612z" />
    <glyph glyph-name="Iacute" unicode="&#xcd;" horiz-adv-x="897" 
d="M754 1915l-404 -221h-22l262 221h164zM459 1612h114v-1612h-114v1612z" />
    <glyph glyph-name="Icircumflex" unicode="&#xce;" horiz-adv-x="897" 
d="M522 1923l281 -229h-25l-260 137l-258 -137h-22l278 229h6zM459 1612h114v-1612h-114v1612z" />
    <glyph glyph-name="Idieresis" unicode="&#xcf;" horiz-adv-x="897" 
d="M635 1806q0 31 21.5 52.5t52.5 21.5t52 -21.5t21 -52.5t-21 -52t-52 -21t-52.5 21t-21.5 52zM264 1806q0 31 21.5 52.5t52.5 21.5t52.5 -21.5t21.5 -52.5t-21.5 -52t-52.5 -21t-52.5 21t-21.5 52zM459 1612h114v-1612h-114v1612z" />
    <glyph glyph-name="Eth" unicode="&#xd0;" horiz-adv-x="1697" 
d="M567 0h-321v809h-219v63h219v740h225q256 0 422 -24t285 -75q428 -179 428 -688q0 -362 -215 -577q-124 -124 -319.5 -186t-504.5 -62zM360 57h172q297 0 486 55t297 181q166 193 166 528q0 473 -353 637q-114 54 -267.5 75t-401.5 21h-99v-682h566v-63h-566v-752z" />
    <glyph glyph-name="Ntilde" unicode="&#xd1;" horiz-adv-x="1759" 
d="M1190 1835l72 96l10 -6l-72 -180h-508l-76 -94l-10 6l76 178h508zM1427 1612h86v-1680l-1181 1457v-1389h-86v1677l1181 -1468v1403z" />
    <glyph glyph-name="Ograve" unicode="&#xd2;" horiz-adv-x="1918" 
d="M1126 1694l-403 221h164l262 -221h-23zM961 1649q245 0 441.5 -104t310.5 -298t114 -444q0 -188 -66.5 -345t-182 -263t-274.5 -165t-343 -59q-183 0 -343 61t-276 170t-183 267.5t-67 345.5q0 250 115 441.5t311.5 292t442.5 100.5zM961 29q105 0 207.5 27t199.5 88
t170 149t117.5 221.5t44.5 294.5q0 163 -44.5 297t-117.5 222.5t-170 149t-199 87t-208 26.5t-208 -26.5t-199.5 -87t-171 -149t-118.5 -222.5t-45 -297q0 -135 31 -251t86 -199.5t126.5 -148t155.5 -103.5t170 -58.5t173 -19.5z" />
    <glyph glyph-name="Oacute" unicode="&#xd3;" horiz-adv-x="1918" 
d="M1249 1915l-403 -221h-23l262 221h164zM961 1649q245 0 441.5 -104t310.5 -298t114 -444q0 -188 -66.5 -345t-182 -263t-274.5 -165t-343 -59q-183 0 -343 61t-276 170t-183 267.5t-67 345.5q0 250 115 441.5t311.5 292t442.5 100.5zM961 29q105 0 207.5 27t199.5 88
t170 149t117.5 221.5t44.5 294.5q0 163 -44.5 297t-117.5 222.5t-170 149t-199 87t-208 26.5t-208 -26.5t-199.5 -87t-171 -149t-118.5 -222.5t-45 -297q0 -135 31 -251t86 -199.5t126.5 -148t155.5 -103.5t170 -58.5t173 -19.5z" />
    <glyph glyph-name="Ocircumflex" unicode="&#xd4;" horiz-adv-x="1918" 
d="M958 1923l281 -229h-25l-260 137l-258 -137h-22l278 229h6zM961 1649q245 0 441.5 -104t310.5 -298t114 -444q0 -188 -66.5 -345t-182 -263t-274.5 -165t-343 -59q-183 0 -343 61t-276 170t-183 267.5t-67 345.5q0 250 115 441.5t311.5 292t442.5 100.5zM961 29
q105 0 207.5 27t199.5 88t170 149t117.5 221.5t44.5 294.5q0 163 -44.5 297t-117.5 222.5t-170 149t-199 87t-208 26.5t-208 -26.5t-199.5 -87t-171 -149t-118.5 -222.5t-45 -297q0 -135 31 -251t86 -199.5t126.5 -148t155.5 -103.5t170 -58.5t173 -19.5z" />
    <glyph glyph-name="Otilde" unicode="&#xd5;" horiz-adv-x="1918" 
d="M1176 1835l71 96l10 -6l-71 -180h-508l-76 -94l-10 6l76 178h508zM961 1649q245 0 441.5 -104t310.5 -298t114 -444q0 -188 -66.5 -345t-182 -263t-274.5 -165t-343 -59q-183 0 -343 61t-276 170t-183 267.5t-67 345.5q0 250 115 441.5t311.5 292t442.5 100.5zM961 29
q105 0 207.5 27t199.5 88t170 149t117.5 221.5t44.5 294.5q0 163 -44.5 297t-117.5 222.5t-170 149t-199 87t-208 26.5t-208 -26.5t-199.5 -87t-171 -149t-118.5 -222.5t-45 -297q0 -135 31 -251t86 -199.5t126.5 -148t155.5 -103.5t170 -58.5t173 -19.5z" />
    <glyph glyph-name="Odieresis" unicode="&#xd6;" horiz-adv-x="1918" 
d="M651 1806q0 31 21.5 52.5t52.5 21.5t52.5 -21.5t21.5 -52.5t-21.5 -52t-52.5 -21t-52.5 21t-21.5 52zM1087 1806q0 31 21.5 52.5t52.5 21.5t52.5 -21.5t21.5 -52.5t-21.5 -52t-52.5 -21t-52.5 21t-21.5 52zM961 1649q245 0 441.5 -104t310.5 -298t114 -444
q0 -188 -66.5 -345t-182 -263t-274.5 -165t-343 -59q-183 0 -343 61t-276 170t-183 267.5t-67 345.5q0 250 115 441.5t311.5 292t442.5 100.5zM961 29q105 0 207.5 27t199.5 88t170 149t117.5 221.5t44.5 294.5q0 163 -44.5 297t-117.5 222.5t-170 149t-199 87t-208 26.5
t-208 -26.5t-199.5 -87t-171 -149t-118.5 -222.5t-45 -297q0 -135 31 -251t86 -199.5t126.5 -148t155.5 -103.5t170 -58.5t173 -19.5z" />
    <glyph glyph-name="multiply" unicode="&#xd7;" horiz-adv-x="1101" 
d="M907 115l-354 354l-354 -354l-58 61l353 352l-365 365l61 63l365 -364l358 358l60 -59l-359 -361l355 -354z" />
    <glyph glyph-name="Oslash" unicode="&#xd8;" horiz-adv-x="1873" 
d="M229 809q0 -346 185 -551l960 1186q-190 145 -436 145q-102 0 -200 -26.5t-191 -86.5t-163 -148.5t-112.5 -222t-42.5 -296.5zM938 31q101 0 199 26.5t190.5 87.5t162.5 149t112.5 221t42.5 294q0 367 -207 577l-965 -1185q98 -87 219 -128.5t246 -41.5zM938 -29
q-308 0 -522 158l-146 -180l-65 51l147 182q-125 112 -192.5 273.5t-67.5 359.5q0 189 63 346t174.5 263.5t268 165.5t340.5 59q274 0 489 -138l127 156l66 -55l-123 -152q137 -112 211 -280.5t74 -376.5q0 -251 -108.5 -441t-299.5 -290.5t-436 -100.5z" />
    <glyph glyph-name="Ugrave" unicode="&#xd9;" horiz-adv-x="1667" 
d="M995 1694l-403 221h164l262 -221h-23zM1368 1612h94v-826q0 -189 -14 -291.5t-45 -175.5q-70 -168 -215.5 -258t-356.5 -90q-456 0 -581 365q-24 69 -34.5 170.5t-10.5 312.5v793h114v-801q0 -204 10 -299t33 -158q54 -142 175 -215t299 -73q355 0 479 280
q30 62 41.5 158t11.5 282v826z" />
    <glyph glyph-name="Uacute" unicode="&#xda;" horiz-adv-x="1667" 
d="M1106 1915l-404 -221h-22l262 221h164zM1368 1612h94v-826q0 -189 -14 -291.5t-45 -175.5q-70 -168 -215.5 -258t-356.5 -90q-456 0 -581 365q-24 69 -34.5 170.5t-10.5 312.5v793h114v-801q0 -204 10 -299t33 -158q54 -142 175 -215t299 -73q355 0 479 280
q30 62 41.5 158t11.5 282v826z" />
    <glyph glyph-name="Ucircumflex" unicode="&#xdb;" horiz-adv-x="1667" 
d="M838 1923l280 -229h-24l-260 137l-259 -137h-22l278 229h7zM1368 1612h94v-826q0 -189 -14 -291.5t-45 -175.5q-70 -168 -215.5 -258t-356.5 -90q-456 0 -581 365q-24 69 -34.5 170.5t-10.5 312.5v793h114v-801q0 -204 10 -299t33 -158q54 -142 175 -215t299 -73
q355 0 479 280q30 62 41.5 158t11.5 282v826z" />
    <glyph glyph-name="Udieresis" unicode="&#xdc;" horiz-adv-x="1667" 
d="M526 1806q0 31 21.5 52.5t52.5 21.5t52.5 -21.5t21.5 -52.5t-21.5 -52t-52.5 -21t-52.5 21t-21.5 52zM963 1806q0 31 21 52.5t52 21.5t52.5 -21.5t21.5 -52.5t-21.5 -52t-52.5 -21t-52 21t-21 52zM1368 1612h94v-826q0 -189 -14 -291.5t-45 -175.5q-70 -168 -215.5 -258
t-356.5 -90q-456 0 -581 365q-24 69 -34.5 170.5t-10.5 312.5v793h114v-801q0 -204 10 -299t33 -158q54 -142 175 -215t299 -73q355 0 479 280q30 62 41.5 158t11.5 282v826z" />
    <glyph glyph-name="Yacute" unicode="&#xdd;" horiz-adv-x="1579" 
d="M1159 1915l-403 -221h-23l262 221h164zM1380 1612h93l-558 -953v-659h-114v659l-563 953h135l501 -873z" />
    <glyph glyph-name="Thorn" unicode="&#xde;" horiz-adv-x="1302" 
d="M434 1241v-795q117 -26 228 -26q80 0 147.5 12t131 41.5t107.5 76t70.5 120t26.5 168.5q0 86 -20.5 152.5t-60 110t-88 73t-114 44.5t-127.5 21t-139 6q-125 0 -162 -4zM311 1612h123v-322q102 4 156 4q686 0 686 -448q0 -119 -40 -212.5t-110 -150.5t-159.5 -86.5
t-192.5 -29.5q-193 0 -340 79v-446h-123v1612z" />
    <glyph glyph-name="germandbls" unicode="&#xdf;" horiz-adv-x="1202" 
d="M184 0v1174q0 109 17 190t58 148t118.5 102t189.5 35q93 0 171 -26.5t127.5 -81.5t49.5 -130q0 -65 -37.5 -114.5t-90.5 -81t-106 -60.5t-90.5 -69.5t-37.5 -92.5q0 -36 20 -72.5t58 -71.5t72.5 -60t82.5 -56l82 -53q145 -90 209 -172t64 -195q0 -85 -32.5 -152.5
t-87 -107.5t-120 -61t-135.5 -21q-151 0 -258 56t-107 118t58 62q22 0 39.5 -11.5t25.5 -23.5t20.5 -35.5t18.5 -32.5q61 -94 205 -94q131 0 198.5 71t67.5 189q0 38 -6.5 70t-25.5 72.5t-61 81t-105 77.5l-115 70q-254 150 -254 297q0 60 35.5 112t134.5 111q42 24 68 44
t50.5 48.5t36 66t11.5 85.5q0 97 -70 151t-174 54q-151 0 -209.5 -91t-58.5 -315v-1204h-107z" />
    <glyph glyph-name="agrave" unicode="&#xe0;" horiz-adv-x="1005" 
d="M676 1217l-391 397h164l237 -397h-10zM696 160q-111 -189 -321 -189q-131 0 -209 71t-78 177q0 105 79.5 174.5t214.5 101.5t325 35l2 105q5 173 -48.5 259.5t-183.5 86.5q-98 0 -159.5 -46.5t-45.5 -139.5q6 -39 -9 -66t-46 -27q-63 0 -63 78q0 101 99.5 173.5
t229.5 72.5q180 0 256.5 -88.5t71.5 -280.5l-10 -510q-3 -98 80 -98q31 0 62.5 19t47.5 53l4 -2q-38 -133 -151 -133q-75 0 -111 41.5t-35 136.5l9 338q-245 -4 -372.5 -72.5t-127.5 -191.5q0 -98 62.5 -148.5t150.5 -50.5q167 0 276 121z" />
    <glyph glyph-name="aacute" unicode="&#xe1;" horiz-adv-x="1005" 
d="M760 1612l-391 -398h-11l238 398h164zM696 160q-111 -189 -321 -189q-131 0 -209 71t-78 177q0 105 79.5 174.5t214.5 101.5t325 35l2 105q5 173 -48.5 259.5t-183.5 86.5q-98 0 -159.5 -46.5t-45.5 -139.5q6 -39 -9 -66t-46 -27q-63 0 -63 78q0 101 99.5 173.5
t229.5 72.5q180 0 256.5 -88.5t71.5 -280.5l-10 -510q-3 -98 80 -98q31 0 62.5 19t47.5 53l4 -2q-38 -133 -151 -133q-75 0 -111 41.5t-35 136.5l9 338q-245 -4 -372.5 -72.5t-127.5 -191.5q0 -98 62.5 -148.5t150.5 -50.5q167 0 276 121z" />
    <glyph glyph-name="acircumflex" unicode="&#xe2;" horiz-adv-x="1005" 
d="M512 1638l322 -417h-13l-313 268l-332 -268h-10l340 417h6zM696 160q-111 -189 -321 -189q-131 0 -209 71t-78 177q0 105 79.5 174.5t214.5 101.5t325 35l2 105q5 173 -48.5 259.5t-183.5 86.5q-98 0 -159.5 -46.5t-45.5 -139.5q6 -39 -9 -66t-46 -27q-63 0 -63 78
q0 101 99.5 173.5t229.5 72.5q180 0 256.5 -88.5t71.5 -280.5l-10 -510q-3 -98 80 -98q31 0 62.5 19t47.5 53l4 -2q-38 -133 -151 -133q-75 0 -111 41.5t-35 136.5l9 338q-245 -4 -372.5 -72.5t-127.5 -191.5q0 -98 62.5 -148.5t150.5 -50.5q167 0 276 121z" />
    <glyph glyph-name="atilde" unicode="&#xe3;" horiz-adv-x="1005" 
d="M764 1450l72 96l10 -6l-72 -180h-508l-76 -94l-10 6l76 178h508zM696 160q-111 -189 -321 -189q-131 0 -209 71t-78 177q0 105 79.5 174.5t214.5 101.5t325 35l2 105q5 173 -48.5 259.5t-183.5 86.5q-98 0 -159.5 -46.5t-45.5 -139.5q6 -39 -9 -66t-46 -27q-63 0 -63 78
q0 101 99.5 173.5t229.5 72.5q180 0 256.5 -88.5t71.5 -280.5l-10 -510q-3 -98 80 -98q31 0 62.5 19t47.5 53l4 -2q-38 -133 -151 -133q-75 0 -111 41.5t-35 136.5l9 338q-245 -4 -372.5 -72.5t-127.5 -191.5q0 -98 62.5 -148.5t150.5 -50.5q167 0 276 121z" />
    <glyph glyph-name="adieresis" unicode="&#xe4;" horiz-adv-x="1005" 
d="M647 1407q0 31 21.5 52.5t52.5 21.5t52.5 -21.5t21.5 -52.5t-21.5 -52.5t-52.5 -21.5t-52.5 21.5t-21.5 52.5zM211 1407q0 31 21.5 52.5t52.5 21.5t52 -21.5t21 -52.5t-21 -52.5t-52 -21.5t-52.5 21.5t-21.5 52.5zM696 160q-111 -189 -321 -189q-131 0 -209 71t-78 177
q0 105 79.5 174.5t214.5 101.5t325 35l2 105q5 173 -48.5 259.5t-183.5 86.5q-98 0 -159.5 -46.5t-45.5 -139.5q6 -39 -9 -66t-46 -27q-63 0 -63 78q0 101 99.5 173.5t229.5 72.5q180 0 256.5 -88.5t71.5 -280.5l-10 -510q-3 -98 80 -98q31 0 62.5 19t47.5 53l4 -2
q-38 -133 -151 -133q-75 0 -111 41.5t-35 136.5l9 338q-245 -4 -372.5 -72.5t-127.5 -191.5q0 -98 62.5 -148.5t150.5 -50.5q167 0 276 121z" />
    <glyph glyph-name="aring" unicode="&#xe5;" horiz-adv-x="1005" 
d="M717 1378q0 -84 -61 -142t-148 -58t-148 58t-61 142t61 142.5t148 58.5t148 -58.5t61 -142.5zM653 1378q0 64 -43 106t-102 42q-62 0 -102.5 -43.5t-40.5 -104.5t40.5 -104t102.5 -43q66 0 105.5 42.5t39.5 104.5zM696 160q-111 -189 -321 -189q-131 0 -209 71t-78 177
q0 105 79.5 174.5t214.5 101.5t325 35l2 105q5 173 -48.5 259.5t-183.5 86.5q-98 0 -159.5 -46.5t-45.5 -139.5q6 -39 -9 -66t-46 -27q-63 0 -63 78q0 101 99.5 173.5t229.5 72.5q180 0 256.5 -88.5t71.5 -280.5l-10 -510q-3 -98 80 -98q31 0 62.5 19t47.5 53l4 -2
q-38 -133 -151 -133q-75 0 -111 41.5t-35 136.5l9 338q-245 -4 -372.5 -72.5t-127.5 -191.5q0 -98 62.5 -148.5t150.5 -50.5q167 0 276 121z" />
    <glyph glyph-name="ae" unicode="&#xe6;" horiz-adv-x="1617" 
d="M1174 -29q-146 0 -253.5 63t-168.5 181q-54 -107 -147.5 -175.5t-217.5 -68.5q-143 0 -221 73.5t-78 174.5q0 161 152.5 235t445.5 76l2 136q0 103 -10 159t-33 88q-49 72 -172 72q-41 0 -77 -8.5t-68 -27t-47 -53t-7 -81.5q6 -39 -9 -65.5t-46 -26.5q-63 0 -63 78
q0 97 95.5 162t221.5 65q134 0 202.5 -48.5t92.5 -150.5q62 98 159 151.5t218 53.5q172 0 281.5 -109.5t127.5 -287.5h-759q-9 -59 -9 -113q0 -210 110.5 -344.5t309.5 -134.5q98 0 187.5 32t146.5 97l4 -4q-137 -199 -370 -199zM1149 989q-142 0 -229.5 -84t-118.5 -227
h637q-7 152 -88 231.5t-201 79.5zM424 43q101 0 189.5 51.5t138.5 120.5q-63 117 -66 287q-238 -4 -359.5 -72.5t-121.5 -191.5q0 -99 60 -147t159 -48z" />
    <glyph glyph-name="ccedilla" unicode="&#xe7;" horiz-adv-x="983" 
d="M758 -285q0 -55 -33 -99t-88 -71.5t-116 -44t-128 -22.5l-6 12q137 16 204.5 76.5t67.5 136.5q0 48 -25.5 75t-72.5 27q-54 0 -94 -28l-49 39l96 159q-187 21 -302.5 165.5t-115.5 369.5q0 231 140.5 371.5t353.5 140.5q74 0 150.5 -19.5t129 -54.5t52.5 -74
q0 -27 -14.5 -44t-43.5 -17q-27 0 -44 17t-29.5 41t-31.5 48t-62.5 41t-110.5 17q-168 0 -271.5 -122.5t-103.5 -332.5q0 -222 111.5 -349.5t281.5 -127.5q218 0 344 115l4 -4q-139 -185 -377 -185h-2l-96 -151q54 41 125 41q70 0 113 -37t43 -109z" />
    <glyph glyph-name="egrave" unicode="&#xe8;" horiz-adv-x="1062" 
d="M715 1217l-391 397h163l238 -397h-10zM590 989q-146 0 -237.5 -83.5t-123.5 -225.5h654q-3 102 -44.5 173.5t-105 103.5t-143.5 32zM983 174l4 -4q-137 -199 -399 -199q-218 0 -355 148.5t-137 400.5q0 224 141.5 369t348.5 145q178 0 288.5 -107t124.5 -288h-778
q-8 -52 -8 -115q0 -210 110.5 -344.5t309.5 -134.5q224 0 350 129z" />
    <glyph glyph-name="eacute" unicode="&#xe9;" horiz-adv-x="1062" 
d="M864 1612l-391 -398h-10l237 398h164zM590 989q-146 0 -237.5 -83.5t-123.5 -225.5h654q-3 102 -44.5 173.5t-105 103.5t-143.5 32zM983 174l4 -4q-137 -199 -399 -199q-218 0 -355 148.5t-137 400.5q0 224 141.5 369t348.5 145q178 0 288.5 -107t124.5 -288h-778
q-8 -52 -8 -115q0 -210 110.5 -344.5t309.5 -134.5q224 0 350 129z" />
    <glyph glyph-name="ecircumflex" unicode="&#xea;" horiz-adv-x="1062" 
d="M590 1638l321 -417h-12l-313 268l-332 -268h-10l340 417h6zM590 989q-146 0 -237.5 -83.5t-123.5 -225.5h654q-3 102 -44.5 173.5t-105 103.5t-143.5 32zM983 174l4 -4q-137 -199 -399 -199q-218 0 -355 148.5t-137 400.5q0 224 141.5 369t348.5 145q178 0 288.5 -107
t124.5 -288h-778q-8 -52 -8 -115q0 -210 110.5 -344.5t309.5 -134.5q224 0 350 129z" />
    <glyph glyph-name="edieresis" unicode="&#xeb;" horiz-adv-x="1062" 
d="M723 1407q0 31 21.5 52.5t52.5 21.5t52 -21.5t21 -52.5t-21 -52.5t-52 -21.5t-52.5 21.5t-21.5 52.5zM287 1407q0 31 21 52.5t52 21.5t52.5 -21.5t21.5 -52.5t-21.5 -52.5t-52.5 -21.5t-52 21.5t-21 52.5zM590 989q-146 0 -237.5 -83.5t-123.5 -225.5h654
q-3 102 -44.5 173.5t-105 103.5t-143.5 32zM983 174l4 -4q-137 -199 -399 -199q-218 0 -355 148.5t-137 400.5q0 224 141.5 369t348.5 145q178 0 288.5 -107t124.5 -288h-778q-8 -52 -8 -115q0 -210 110.5 -344.5t309.5 -134.5q224 0 350 129z" />
    <glyph glyph-name="igrave" unicode="&#xec;" 
d="M395 1217l-350 397h164l197 -397h-11zM205 0v985h106v-985h-106z" />
    <glyph glyph-name="iacute" unicode="&#xed;" 
d="M477 1612l-350 -398h-10l196 398h164zM205 0v985h106v-985h-106z" />
    <glyph glyph-name="icircumflex" unicode="&#xee;" 
d="M264 1638l219 -417h-12l-211 247l-229 -247h-11l238 417h6zM205 0v985h106v-985h-106z" />
    <glyph glyph-name="idieresis" unicode="&#xef;" 
d="M324 1407q0 31 21 52.5t52 21.5t52.5 -21.5t21.5 -52.5t-21.5 -52.5t-52.5 -21.5t-52 21.5t-21 52.5zM47 1407q0 31 21.5 52.5t52.5 21.5t52.5 -21.5t21.5 -52.5t-21.5 -52.5t-52.5 -21.5t-52.5 21.5t-21.5 52.5zM205 0v985h106v-985h-106z" />
    <glyph glyph-name="eth" unicode="&#xf0;" horiz-adv-x="1210" 
d="M778 1655l47 -41l-176 -211q217 -130 331 -337t114 -480q0 -98 -16 -186t-52.5 -167.5t-91 -136.5t-136.5 -91t-184 -34q-219 0 -352 146t-133 375q0 111 27 199.5t70.5 144t102 92.5t117 52t119.5 15q162 0 266 -97t144 -251q-22 453 -367 709l-207 -246l-47 43l203 240
q-141 97 -358 163l2 9q211 -39 391 -131zM588 932q-90 0 -158 -37.5t-107 -102.5t-58 -142.5t-19 -166.5q0 -128 39 -231.5t122.5 -168.5t200.5 -65q115 0 199.5 63.5t125 165t40.5 226.5q0 121 -44 224t-133.5 169t-207.5 66z" />
    <glyph glyph-name="ntilde" unicode="&#xf1;" horiz-adv-x="1171" 
d="M881 1450l71 96l11 -6l-72 -180h-508l-76 -94l-10 6l76 178h508zM907 0v571q0 120 -16.5 187.5t-54.5 109.5q-70 76 -193 76t-208 -66t-124 -176q34 155 133.5 237.5t233.5 82.5q159 0 246 -90q46 -49 68 -126.5t22 -211.5v-594h-107zM205 0v985h106v-985h-106z" />
    <glyph glyph-name="ograve" unicode="&#xf2;" horiz-adv-x="1204" 
d="M797 1217l-391 397h163l238 -397h-10zM96 504q0 240 141.5 385t364.5 145t364.5 -145t141.5 -385q0 -239 -142 -386t-364 -147q-223 0 -364.5 146t-141.5 387zM602 18q92 0 168 42.5t123 112.5t72.5 155.5t25.5 175.5q0 92 -25.5 177t-72.5 154t-122.5 110.5t-168.5 41.5
q-121 0 -211.5 -70.5t-134 -178.5t-43.5 -234q0 -92 25.5 -177.5t72.5 -155t122.5 -111.5t168.5 -42z" />
    <glyph glyph-name="oacute" unicode="&#xf3;" horiz-adv-x="1204" 
d="M915 1612l-391 -398h-10l238 398h163zM96 504q0 240 141.5 385t364.5 145t364.5 -145t141.5 -385q0 -239 -142 -386t-364 -147q-223 0 -364.5 146t-141.5 387zM602 18q92 0 168 42.5t123 112.5t72.5 155.5t25.5 175.5q0 92 -25.5 177t-72.5 154t-122.5 110.5t-168.5 41.5
q-121 0 -211.5 -70.5t-134 -178.5t-43.5 -234q0 -92 25.5 -177.5t72.5 -155t122.5 -111.5t168.5 -42z" />
    <glyph glyph-name="ocircumflex" unicode="&#xf4;" horiz-adv-x="1204" 
d="M614 1638l322 -417h-12l-314 268l-331 -268h-11l340 417h6zM96 504q0 240 141.5 385t364.5 145t364.5 -145t141.5 -385q0 -239 -142 -386t-364 -147q-223 0 -364.5 146t-141.5 387zM602 18q92 0 168 42.5t123 112.5t72.5 155.5t25.5 175.5q0 92 -25.5 177t-72.5 154
t-122.5 110.5t-168.5 41.5q-121 0 -211.5 -70.5t-134 -178.5t-43.5 -234q0 -92 25.5 -177.5t72.5 -155t122.5 -111.5t168.5 -42z" />
    <glyph glyph-name="otilde" unicode="&#xf5;" horiz-adv-x="1204" 
d="M864 1450l72 96l10 -6l-72 -180h-507l-76 -94l-10 6l75 178h508zM96 504q0 240 141.5 385t364.5 145t364.5 -145t141.5 -385q0 -239 -142 -386t-364 -147q-223 0 -364.5 146t-141.5 387zM602 18q92 0 168 42.5t123 112.5t72.5 155.5t25.5 175.5q0 92 -25.5 177t-72.5 154
t-122.5 110.5t-168.5 41.5q-121 0 -211.5 -70.5t-134 -178.5t-43.5 -234q0 -92 25.5 -177.5t72.5 -155t122.5 -111.5t168.5 -42z" />
    <glyph glyph-name="odieresis" unicode="&#xf6;" horiz-adv-x="1204" 
d="M772 1407q0 31 21.5 52.5t52.5 21.5t52.5 -21.5t21.5 -52.5t-21.5 -52.5t-52.5 -21.5t-52.5 21.5t-21.5 52.5zM336 1407q0 31 21.5 52.5t52.5 21.5t52 -21.5t21 -52.5t-21 -52.5t-52 -21.5t-52.5 21.5t-21.5 52.5zM96 504q0 240 141.5 385t364.5 145t364.5 -145
t141.5 -385q0 -239 -142 -386t-364 -147q-223 0 -364.5 146t-141.5 387zM602 18q92 0 168 42.5t123 112.5t72.5 155.5t25.5 175.5q0 92 -25.5 177t-72.5 154t-122.5 110.5t-168.5 41.5q-121 0 -211.5 -70.5t-134 -178.5t-43.5 -234q0 -92 25.5 -177.5t72.5 -155
t122.5 -111.5t168.5 -42z" />
    <glyph glyph-name="divide" unicode="&#xf7;" horiz-adv-x="1187" 
d="M483 844q0 43 30 72.5t73 29.5t72.5 -29.5t29.5 -72.5t-29.5 -73t-72.5 -30t-73 30t-30 73zM129 477v88h930v-88h-930zM481 205q0 43 30 72.5t73 29.5t72.5 -29.5t29.5 -72.5t-29.5 -73t-72.5 -30t-73 30t-30 73z" />
    <glyph glyph-name="oslash" unicode="&#xf8;" horiz-adv-x="1204" 
d="M213 504q0 -218 119 -361l479 777q-85 67 -209 67q-121 0 -211.5 -70.5t-134 -178.5t-43.5 -234zM602 18q92 0 168 42.5t123 112.5t72.5 155.5t25.5 175.5q0 223 -127 368l-479 -780q90 -74 217 -74zM602 -29q-136 0 -254 62l-96 -156l-59 39l96 156q-92 70 -142.5 181
t-50.5 251q0 240 141.5 385t364.5 145q138 0 246 -57l98 162l60 -37l-99 -162q96 -69 148.5 -180t52.5 -256q0 -239 -142 -386t-364 -147z" />
    <glyph glyph-name="ugrave" unicode="&#xf9;" horiz-adv-x="1171" 
d="M750 1217l-392 397h164l238 -397h-10zM860 0v985h107v-985h-107zM184 985h107v-657q0 -130 63 -204.5t197 -74.5q107 0 189.5 61.5t119.5 157.5q-40 -146 -131 -221.5t-217 -75.5q-164 0 -246 92t-82 263v659z" />
    <glyph glyph-name="uacute" unicode="&#xfa;" horiz-adv-x="1171" 
d="M860 1612l-391 -398h-10l237 398h164zM860 0v985h107v-985h-107zM184 985h107v-657q0 -130 63 -204.5t197 -74.5q107 0 189.5 61.5t119.5 157.5q-40 -146 -131 -221.5t-217 -75.5q-164 0 -246 92t-82 263v659z" />
    <glyph glyph-name="ucircumflex" unicode="&#xfb;" horiz-adv-x="1171" 
d="M602 1638l322 -417h-13l-313 268l-332 -268h-10l340 417h6zM860 0v985h107v-985h-107zM184 985h107v-657q0 -130 63 -204.5t197 -74.5q107 0 189.5 61.5t119.5 157.5q-40 -146 -131 -221.5t-217 -75.5q-164 0 -246 92t-82 263v659z" />
    <glyph glyph-name="udieresis" unicode="&#xfc;" horiz-adv-x="1171" 
d="M723 1407q0 31 21.5 52.5t52.5 21.5t52 -21.5t21 -52.5t-21 -52.5t-52 -21.5t-52.5 21.5t-21.5 52.5zM287 1407q0 31 21 52.5t52 21.5t52.5 -21.5t21.5 -52.5t-21.5 -52.5t-52.5 -21.5t-52 21.5t-21 52.5zM860 0v985h107v-985h-107zM184 985h107v-657q0 -130 63 -204.5
t197 -74.5q107 0 189.5 61.5t119.5 157.5q-40 -146 -131 -221.5t-217 -75.5q-164 0 -246 92t-82 263v659z" />
    <glyph glyph-name="yacute" unicode="&#xfd;" horiz-adv-x="974" 
d="M801 1612l-391 -398h-11l238 398h164zM442 31l-411 954h121l354 -846l368 846h91l-676 -1522h-82z" />
    <glyph glyph-name="thorn" unicode="&#xfe;" horiz-adv-x="1419" 
d="M342 -537h-106v2149h106v-2149zM627 965q-74 0 -151.5 -25t-131.5 -72q56 75 143.5 121.5t182.5 46.5q146 0 255 -71t163.5 -189.5t54.5 -267.5q0 -151 -54.5 -271.5t-161.5 -193t-251 -72.5q-192 0 -332 158q58 -41 134 -63.5t147 -22.5q131 0 223 63t135 166t43 236
q0 204 -104.5 330.5t-294.5 126.5z" />
    <glyph glyph-name="ydieresis" unicode="&#xff;" horiz-adv-x="974" 
d="M657 1407q0 31 21.5 52.5t52.5 21.5t52.5 -21.5t21.5 -52.5t-21.5 -52.5t-52.5 -21.5t-52.5 21.5t-21.5 52.5zM221 1407q0 31 21.5 52.5t52.5 21.5t52.5 -21.5t21.5 -52.5t-21.5 -52.5t-52.5 -21.5t-52.5 21.5t-21.5 52.5zM442 31l-411 954h121l354 -846l368 846h91
l-676 -1522h-82z" />
    <glyph glyph-name="Amacron" unicode="&#x100;" horiz-adv-x="1341" 
d="M414 1747v65h520v-65h-520zM655 1436l-313 -832h627zM1198 0l-194 516h-695l-194 -516h-92l645 1690l651 -1690h-121z" />
    <glyph glyph-name="amacron" unicode="&#x101;" horiz-adv-x="1005" 
d="M180 1348v65h643v-65h-643zM696 160q-111 -189 -321 -189q-131 0 -209 71t-78 177q0 105 79.5 174.5t214.5 101.5t325 35l2 105q5 173 -48.5 259.5t-183.5 86.5q-98 0 -159.5 -46.5t-45.5 -139.5q6 -39 -9 -66t-46 -27q-63 0 -63 78q0 101 99.5 173.5t229.5 72.5
q180 0 256.5 -88.5t71.5 -280.5l-10 -510q-3 -98 80 -98q31 0 62.5 19t47.5 53l4 -2q-38 -133 -151 -133q-75 0 -111 41.5t-35 136.5l9 338q-245 -4 -372.5 -72.5t-127.5 -191.5q0 -98 62.5 -148.5t150.5 -50.5q167 0 276 121z" />
    <glyph glyph-name="Abreve" unicode="&#x102;" horiz-adv-x="1341" 
d="M655 1436l-313 -832h627zM1198 0l-194 516h-695l-194 -516h-92l641 1679q-47 0 -90 11t-85 36t-69 73.5t-31 115.5h64q2 -38 13 -67.5t34 -56.5t66 -41.5t104 -14.5t104 14.5t66 41.5t34 56.5t13 67.5h63q-3 -56 -22.5 -99t-47 -68.5t-65 -41.5t-72 -21.5t-71.5 -5.5
l647 -1679h-121z" />
    <glyph glyph-name="abreve" unicode="&#x103;" horiz-adv-x="1005" 
d="M760 1534h63q-3 -79 -26.5 -139.5t-57 -95.5t-78 -57t-82.5 -29t-77 -7t-77 7t-82.5 29t-78 57t-57.5 95.5t-27 139.5h64q5 -123 70 -196.5t188 -73.5t188 73.5t70 196.5zM696 160q-111 -189 -321 -189q-131 0 -209 71t-78 177q0 105 79.5 174.5t214.5 101.5t325 35
l2 105q5 173 -48.5 259.5t-183.5 86.5q-98 0 -159.5 -46.5t-45.5 -139.5q6 -39 -9 -66t-46 -27q-63 0 -63 78q0 101 99.5 173.5t229.5 72.5q180 0 256.5 -88.5t71.5 -280.5l-10 -510q-3 -98 80 -98q31 0 62.5 19t47.5 53l4 -2q-38 -133 -151 -133q-75 0 -111 41.5t-35 136.5
l9 338q-245 -4 -372.5 -72.5t-127.5 -191.5q0 -98 62.5 -148.5t150.5 -50.5q167 0 276 121z" />
    <glyph glyph-name="Aogonek" unicode="&#x104;" horiz-adv-x="1341" 
d="M655 1436l-313 -832h627zM1298 0h-100l-194 516h-695l-194 -516h-92l645 1690l651 -1690q-89 -59 -145 -133.5t-56 -155.5q0 -65 43 -105.5t104 -45t128 17.5l2 -4q-75 -61 -183 -61q-83 0 -138.5 45t-55.5 127q0 48 20.5 91t63 83t86.5 70.5t110 70.5z" />
    <glyph glyph-name="aogonek" unicode="&#x105;" horiz-adv-x="1005" 
d="M786 -487q-83 0 -138.5 45t-55.5 127q0 87 66 155.5t190 145.5h-4q-75 0 -111 41.5t-35 136.5l9 338q-245 -4 -372.5 -72.5t-127.5 -191.5q0 -98 62.5 -148.5t150.5 -50.5q167 0 276 121q-111 -189 -321 -189q-131 0 -209 71t-78 177q0 105 79.5 174.5t214.5 101.5
t325 35l2 105q5 173 -48.5 259.5t-183.5 86.5q-98 0 -159.5 -46.5t-45.5 -139.5q6 -39 -9 -66t-46 -27q-63 0 -63 78q0 101 99.5 173.5t229.5 72.5q180 0 256.5 -88.5t71.5 -280.5l-10 -510q-3 -98 80 -98q31 0 62.5 19t47.5 53l4 -2q-29 -109 -118 -129
q-82 -59 -133.5 -131.5t-51.5 -147.5q0 -65 43 -105.5t104 -45t128 17.5l2 -4q-75 -61 -183 -61z" />
    <glyph glyph-name="Cacute" unicode="&#x106;" horiz-adv-x="1669" 
d="M1241 1915l-403 -221h-23l262 221h164zM1608 342v-188q-248 -183 -633 -183q-176 0 -323 46t-249 125.5t-173.5 186.5t-104.5 228t-33 252q0 253 112 444.5t310 293.5t451 102q353 0 624 -168v-193q-74 139 -243 221t-385 82q-109 0 -213.5 -28.5t-200.5 -91.5
t-168.5 -153t-116 -223t-43.5 -292q0 -150 43.5 -278.5t116.5 -218t169 -153.5t201.5 -94t213.5 -30q73 0 141.5 8.5t142.5 30t137.5 56t122.5 90.5t101 128z" />
    <glyph glyph-name="cacute" unicode="&#x107;" horiz-adv-x="983" 
d="M854 1612l-391 -398h-10l237 398h164zM211 522q0 -222 111.5 -349.5t281.5 -127.5q218 0 344 115l4 -4q-139 -185 -377 -185q-212 0 -345.5 147t-133.5 392q0 231 140.5 371.5t353.5 140.5q74 0 150.5 -19.5t129 -54.5t52.5 -74q0 -27 -14.5 -44t-43.5 -17q-27 0 -44 17
t-29.5 41t-31.5 48t-62.5 41t-110.5 17q-168 0 -271.5 -122.5t-103.5 -332.5z" />
    <glyph glyph-name="Ccircumflex" unicode="&#x108;" horiz-adv-x="1669" 
d="M958 1923l281 -229h-25l-260 137l-258 -137h-22l278 229h6zM1608 342v-188q-248 -183 -633 -183q-176 0 -323 46t-249 125.5t-173.5 186.5t-104.5 228t-33 252q0 253 112 444.5t310 293.5t451 102q353 0 624 -168v-193q-74 139 -243 221t-385 82q-109 0 -213.5 -28.5
t-200.5 -91.5t-168.5 -153t-116 -223t-43.5 -292q0 -150 43.5 -278.5t116.5 -218t169 -153.5t201.5 -94t213.5 -30q73 0 141.5 8.5t142.5 30t137.5 56t122.5 90.5t101 128z" />
    <glyph glyph-name="ccircumflex" unicode="&#x109;" horiz-adv-x="983" 
d="M575 1638l322 -417h-12l-314 268l-331 -268h-11l340 417h6zM211 522q0 -222 111.5 -349.5t281.5 -127.5q218 0 344 115l4 -4q-139 -185 -377 -185q-212 0 -345.5 147t-133.5 392q0 231 140.5 371.5t353.5 140.5q74 0 150.5 -19.5t129 -54.5t52.5 -74q0 -27 -14.5 -44
t-43.5 -17q-27 0 -44 17t-29.5 41t-31.5 48t-62.5 41t-110.5 17q-168 0 -271.5 -122.5t-103.5 -332.5z" />
    <glyph glyph-name="Cdotaccent" unicode="&#x10a;" horiz-adv-x="1669" 
d="M872 1804q0 35 24.5 59.5t59.5 24.5t59.5 -24.5t24.5 -59.5t-24.5 -59.5t-59.5 -24.5t-59.5 24.5t-24.5 59.5zM1608 342v-188q-248 -183 -633 -183q-176 0 -323 46t-249 125.5t-173.5 186.5t-104.5 228t-33 252q0 253 112 444.5t310 293.5t451 102q353 0 624 -168v-193
q-74 139 -243 221t-385 82q-109 0 -213.5 -28.5t-200.5 -91.5t-168.5 -153t-116 -223t-43.5 -292q0 -150 43.5 -278.5t116.5 -218t169 -153.5t201.5 -94t213.5 -30q73 0 141.5 8.5t142.5 30t137.5 56t122.5 90.5t101 128z" />
    <glyph glyph-name="cdotaccent" unicode="&#x10b;" horiz-adv-x="983" 
d="M500 1425q0 35 24.5 59.5t59.5 24.5t59.5 -24.5t24.5 -59.5t-24.5 -59.5t-59.5 -24.5t-59.5 24.5t-24.5 59.5zM211 522q0 -222 111.5 -349.5t281.5 -127.5q218 0 344 115l4 -4q-139 -185 -377 -185q-212 0 -345.5 147t-133.5 392q0 231 140.5 371.5t353.5 140.5
q74 0 150.5 -19.5t129 -54.5t52.5 -74q0 -27 -14.5 -44t-43.5 -17q-27 0 -44 17t-29.5 41t-31.5 48t-62.5 41t-110.5 17q-168 0 -271.5 -122.5t-103.5 -332.5z" />
    <glyph glyph-name="Ccaron" unicode="&#x10c;" horiz-adv-x="1669" 
d="M967 1694l-281 229h25l260 -137l258 137h22l-278 -229h-6zM1608 342v-188q-248 -183 -633 -183q-176 0 -323 46t-249 125.5t-173.5 186.5t-104.5 228t-33 252q0 253 112 444.5t310 293.5t451 102q353 0 624 -168v-193q-74 139 -243 221t-385 82q-109 0 -213.5 -28.5
t-200.5 -91.5t-168.5 -153t-116 -223t-43.5 -292q0 -150 43.5 -278.5t116.5 -218t169 -153.5t201.5 -94t213.5 -30q73 0 141.5 8.5t142.5 30t137.5 56t122.5 90.5t101 128z" />
    <glyph glyph-name="ccaron" unicode="&#x10d;" horiz-adv-x="983" 
d="M573 1221l-321 417h12l314 -268l331 268h11l-340 -417h-7zM211 522q0 -222 111.5 -349.5t281.5 -127.5q218 0 344 115l4 -4q-139 -185 -377 -185q-212 0 -345.5 147t-133.5 392q0 231 140.5 371.5t353.5 140.5q74 0 150.5 -19.5t129 -54.5t52.5 -74q0 -27 -14.5 -44
t-43.5 -17q-27 0 -44 17t-29.5 41t-31.5 48t-62.5 41t-110.5 17q-168 0 -271.5 -122.5t-103.5 -332.5z" />
    <glyph glyph-name="Dcaron" unicode="&#x10e;" horiz-adv-x="1697" 
d="M877 1694l-281 229h25l260 -137l258 137h22l-278 -229h-6zM246 1612h225q256 0 422 -24t285 -75q428 -179 428 -688q0 -362 -215 -577q-124 -124 -319.5 -186t-504.5 -62h-321v1612zM360 1554v-1497h172q297 0 486 55t297 181q166 193 166 528q0 473 -353 637
q-114 54 -267.5 75t-401.5 21h-99z" />
    <glyph glyph-name="dcaron" unicode="&#x10f;" horiz-adv-x="1185" 
d="M1071 1163l117 449h151l-260 -449h-8zM1010 1612v-1612h-107v1612h107zM580 1028q95 0 181 -46.5t142 -121.5q-55 48 -131.5 74.5t-148.5 26.5q-190 0 -300 -129.5t-110 -331.5q0 -201 108.5 -331t303.5 -130q69 0 144 24t134 66q-143 -158 -330 -158q-144 0 -253.5 70.5
t-166.5 190t-57 268.5q0 145 57.5 264.5t169.5 191.5t257 72z" />
    <glyph glyph-name="Dcroat" unicode="&#x110;" horiz-adv-x="1697" 
d="M567 0h-321v809h-219v63h219v740h225q256 0 422 -24t285 -75q428 -179 428 -688q0 -362 -215 -577q-124 -124 -319.5 -186t-504.5 -62zM360 57h172q297 0 486 55t297 181q166 193 166 528q0 473 -353 637q-114 54 -267.5 75t-401.5 21h-99v-682h566v-63h-566v-752z" />
    <glyph glyph-name="dslash" unicode="&#x111;" horiz-adv-x="1214" 
d="M903 0v1233h-330v41h330v338h107v-338h170v-41h-170v-1233h-107zM580 1028q95 0 181 -46.5t142 -121.5q-55 48 -131.5 74.5t-148.5 26.5q-190 0 -300 -129.5t-110 -331.5q0 -201 108.5 -331t303.5 -130q69 0 144 24t134 66q-143 -158 -330 -158q-144 0 -253.5 70.5
t-166.5 190t-57 268.5q0 145 57.5 264.5t169.5 191.5t257 72z" />
    <glyph glyph-name="Emacron" unicode="&#x112;" horiz-adv-x="1226" 
d="M387 1747v65h643v-65h-643zM246 0v1612h897v-62h-783v-669h705v-62h-705v-758h816v-61h-930z" />
    <glyph glyph-name="emacron" unicode="&#x113;" horiz-adv-x="1062" 
d="M256 1348v65h643v-65h-643zM590 989q-146 0 -237.5 -83.5t-123.5 -225.5h654q-3 102 -44.5 173.5t-105 103.5t-143.5 32zM983 174l4 -4q-137 -199 -399 -199q-218 0 -355 148.5t-137 400.5q0 224 141.5 369t348.5 145q178 0 288.5 -107t124.5 -288h-778q-8 -52 -8 -115
q0 -210 110.5 -344.5t309.5 -134.5q224 0 350 129z" />
    <glyph glyph-name="Ebreve" unicode="&#x114;" horiz-adv-x="1226" 
d="M678 1679q-38 0 -73 5.5t-72.5 21.5t-65.5 41.5t-47.5 68.5t-22.5 99h64q2 -38 13 -67.5t34 -56.5t66 -41.5t104 -14.5t104 14.5t66 41.5t34 56.5t13 67.5h63q-3 -56 -22.5 -99t-47 -68.5t-65.5 -41.5t-72.5 -21.5t-72.5 -5.5zM246 0v1612h897v-62h-783v-669h705v-62
h-705v-758h816v-61h-930z" />
    <glyph glyph-name="ebreve" unicode="&#x115;" horiz-adv-x="1062" 
d="M834 1534h63q-3 -79 -27 -139.5t-57.5 -95.5t-78 -57t-82.5 -29t-77 -7t-77 7t-82.5 29t-78 57t-57 95.5t-26.5 139.5h63q5 -123 70 -196.5t188 -73.5t188.5 74t70.5 196zM590 989q-146 0 -237.5 -83.5t-123.5 -225.5h654q-3 102 -44.5 173.5t-105 103.5t-143.5 32z
M983 174l4 -4q-137 -199 -399 -199q-218 0 -355 148.5t-137 400.5q0 224 141.5 369t348.5 145q178 0 288.5 -107t124.5 -288h-778q-8 -52 -8 -115q0 -210 110.5 -344.5t309.5 -134.5q224 0 350 129z" />
    <glyph glyph-name="Edotaccent" unicode="&#x116;" horiz-adv-x="1226" 
d="M616 1804q0 35 24.5 59.5t59.5 24.5t59.5 -24.5t24.5 -59.5t-24.5 -59.5t-59.5 -24.5t-59.5 24.5t-24.5 59.5zM246 0v1612h897v-62h-783v-669h705v-62h-705v-758h816v-61h-930z" />
    <glyph glyph-name="edotaccent" unicode="&#x117;" horiz-adv-x="1062" 
d="M522 1425q0 35 24.5 59.5t59.5 24.5t59.5 -24.5t24.5 -59.5t-24.5 -59.5t-59.5 -24.5t-59.5 24.5t-24.5 59.5zM590 989q-146 0 -237.5 -83.5t-123.5 -225.5h654q-3 102 -44.5 173.5t-105 103.5t-143.5 32zM983 174l4 -4q-137 -199 -399 -199q-218 0 -355 148.5
t-137 400.5q0 224 141.5 369t348.5 145q178 0 288.5 -107t124.5 -288h-778q-8 -52 -8 -115q0 -210 110.5 -344.5t309.5 -134.5q224 0 350 129z" />
    <glyph glyph-name="Eogonek" unicode="&#x118;" horiz-adv-x="1226" 
d="M1155 0h-909v1612h897v-62h-783v-669h705v-62h-705v-758h816v-61q-89 -59 -145 -133.5t-56 -155.5q0 -65 43 -105.5t103.5 -45t127.5 17.5l2 -4q-75 -61 -182 -61q-83 0 -139 45t-56 127q0 48 21 91t63.5 83t86 70.5t110.5 70.5z" />
    <glyph glyph-name="eogonek" unicode="&#x119;" horiz-adv-x="1062" 
d="M838 -422l2 -4q-75 -61 -183 -61q-83 0 -138.5 45t-55.5 127q0 164 268 303q-70 -17 -143 -17q-218 0 -355 148.5t-137 400.5q0 112 38.5 208.5t104.5 162.5t156 103.5t191 37.5q178 0 288.5 -107t124.5 -288h-778q-8 -52 -8 -113q0 -210 110.5 -344.5t309.5 -134.5
q98 0 194 32t154 97l4 -4q-73 -107 -176 -154q-73 -35 -101 -57q-15 -12 -32 -29q-113 -108 -113 -219q0 -65 43 -105.5t104 -45t128 17.5zM590 987q-147 0 -239 -83.5t-124 -225.5h656q-3 102 -44.5 173.5t-105 103.5t-143.5 32z" />
    <glyph glyph-name="Ecaron" unicode="&#x11a;" horiz-adv-x="1226" 
d="M698 1694l-280 229h24l260 -137l259 137h22l-278 -229h-7zM246 0v1612h897v-62h-783v-669h705v-62h-705v-758h816v-61h-930z" />
    <glyph glyph-name="ecaron" unicode="&#x11b;" horiz-adv-x="1062" 
d="M580 1221l-322 417h12l314 -268l331 268h11l-340 -417h-6zM590 989q-146 0 -237.5 -83.5t-123.5 -225.5h654q-3 102 -44.5 173.5t-105 103.5t-143.5 32zM983 174l4 -4q-137 -199 -399 -199q-218 0 -355 148.5t-137 400.5q0 224 141.5 369t348.5 145q178 0 288.5 -107
t124.5 -288h-778q-8 -52 -8 -115q0 -210 110.5 -344.5t309.5 -134.5q224 0 350 129z" />
    <glyph glyph-name="Gcircumflex" unicode="&#x11c;" horiz-adv-x="1742" 
d="M958 1923l281 -229h-25l-260 137l-258 -137h-22l278 229h6zM1487 668h112v-459q-168 -238 -618 -238q-184 0 -334.5 46.5t-252 125t-171 186.5t-100.5 227.5t-31 250.5q0 253 110 445t305.5 294.5t448.5 102.5q358 0 629 -168v-193q-72 138 -244 220.5t-389 82.5
q-110 0 -213.5 -28t-199 -90t-166 -152.5t-112.5 -224t-42 -295.5q0 -152 42.5 -280.5t115 -217.5t168.5 -152t202.5 -92.5t217.5 -29.5q394 0 522 174v465z" />
    <glyph glyph-name="gcircumflex" unicode="&#x11d;" horiz-adv-x="1189" 
d="M565 1638l322 -417h-13l-313 268l-332 -268h-10l340 417h6zM848 668q0 134 -79 221.5t-216 87.5q-134 0 -210.5 -83.5t-76.5 -225.5q0 -144 82 -227t205 -83q127 0 211 82.5t84 227.5zM1098 -166q0 -97 -43.5 -171.5t-119.5 -119t-171 -66.5t-205 -22q-228 0 -360.5 81.5
t-132.5 203.5q0 93 92 160t252 92q-127 0 -192.5 45t-65.5 115q0 74 77 119t220 59q-142 29 -222 118.5t-80 219.5q0 171 111.5 259.5t294.5 88.5q101 0 199 -49l403 12v-86l-367 51q77 -46 125 -117t48 -159q0 -161 -113.5 -255t-294.5 -94q-53 0 -102 11
q-92 -17 -141.5 -52.5t-49.5 -82.5q0 -101 199 -101h180q106 0 185.5 -12.5t143.5 -41t97 -80.5t33 -126zM174 -260q0 -112 101.5 -181t277.5 -69q80 0 155.5 15t144 46t110 88t41.5 132q0 110 -83 165.5t-288 55.5h-223q-123 -43 -179.5 -102.5t-56.5 -149.5z" />
    <glyph glyph-name="Gbreve" unicode="&#x11e;" horiz-adv-x="1742" 
d="M944 1679q-38 0 -72.5 5.5t-72.5 21.5t-65.5 41.5t-47 68.5t-22.5 99h63q2 -38 13 -67.5t34 -56.5t66 -41.5t104 -14.5t104 14.5t66 41.5t34 56.5t13 67.5h64q-3 -56 -22.5 -99t-47.5 -68.5t-65.5 -41.5t-72.5 -21.5t-73 -5.5zM1487 668h112v-459q-168 -238 -618 -238
q-184 0 -334.5 46.5t-252 125t-171 186.5t-100.5 227.5t-31 250.5q0 253 110 445t305.5 294.5t448.5 102.5q358 0 629 -168v-193q-72 138 -244 220.5t-389 82.5q-110 0 -213.5 -28t-199 -90t-166 -152.5t-112.5 -224t-42 -295.5q0 -152 42.5 -280.5t115 -217.5t168.5 -152
t202.5 -92.5t217.5 -29.5q394 0 522 174v465z" />
    <glyph glyph-name="gbreve" unicode="&#x11f;" horiz-adv-x="1189" 
d="M813 1534h64q-3 -79 -27 -139.5t-57.5 -95.5t-78 -57t-82.5 -29t-77 -7t-77 7t-82.5 29t-78 57t-57.5 95.5t-27 139.5h64q5 -123 70 -196.5t188 -73.5t188 73.5t70 196.5zM848 668q0 134 -79 221.5t-216 87.5q-134 0 -210.5 -83.5t-76.5 -225.5q0 -144 82 -227t205 -83
q127 0 211 82.5t84 227.5zM1098 -166q0 -97 -43.5 -171.5t-119.5 -119t-171 -66.5t-205 -22q-228 0 -360.5 81.5t-132.5 203.5q0 93 92 160t252 92q-127 0 -192.5 45t-65.5 115q0 74 77 119t220 59q-142 29 -222 118.5t-80 219.5q0 171 111.5 259.5t294.5 88.5
q101 0 199 -49l403 12v-86l-367 51q77 -46 125 -117t48 -159q0 -161 -113.5 -255t-294.5 -94q-53 0 -102 11q-92 -17 -141.5 -52.5t-49.5 -82.5q0 -101 199 -101h180q106 0 185.5 -12.5t143.5 -41t97 -80.5t33 -126zM174 -260q0 -112 101.5 -181t277.5 -69q80 0 155.5 15
t144 46t110 88t41.5 132q0 110 -83 165.5t-288 55.5h-223q-123 -43 -179.5 -102.5t-56.5 -149.5z" />
    <glyph glyph-name="Gdotaccent" unicode="&#x120;" horiz-adv-x="1742" 
d="M881 1804q0 35 24.5 59.5t59.5 24.5t59.5 -24.5t24.5 -59.5t-24.5 -59.5t-59.5 -24.5t-59.5 24.5t-24.5 59.5zM1487 668h112v-459q-168 -238 -618 -238q-184 0 -334.5 46.5t-252 125t-171 186.5t-100.5 227.5t-31 250.5q0 253 110 445t305.5 294.5t448.5 102.5
q358 0 629 -168v-193q-72 138 -244 220.5t-389 82.5q-110 0 -213.5 -28t-199 -90t-166 -152.5t-112.5 -224t-42 -295.5q0 -152 42.5 -280.5t115 -217.5t168.5 -152t202.5 -92.5t217.5 -29.5q394 0 522 174v465z" />
    <glyph glyph-name="gdotaccent" unicode="&#x121;" horiz-adv-x="1189" 
d="M471 1425q0 35 24.5 59.5t59.5 24.5t59.5 -24.5t24.5 -59.5t-24.5 -59.5t-59.5 -24.5t-59.5 24.5t-24.5 59.5zM848 668q0 134 -79 221.5t-216 87.5q-134 0 -210.5 -83.5t-76.5 -225.5q0 -144 82 -227t205 -83q127 0 211 82.5t84 227.5zM1098 -166q0 -97 -43.5 -171.5
t-119.5 -119t-171 -66.5t-205 -22q-228 0 -360.5 81.5t-132.5 203.5q0 93 92 160t252 92q-127 0 -192.5 45t-65.5 115q0 74 77 119t220 59q-142 29 -222 118.5t-80 219.5q0 171 111.5 259.5t294.5 88.5q101 0 199 -49l403 12v-86l-367 51q77 -46 125 -117t48 -159
q0 -161 -113.5 -255t-294.5 -94q-53 0 -102 11q-92 -17 -141.5 -52.5t-49.5 -82.5q0 -101 199 -101h180q106 0 185.5 -12.5t143.5 -41t97 -80.5t33 -126zM174 -260q0 -112 101.5 -181t277.5 -69q80 0 155.5 15t144 46t110 88t41.5 132q0 110 -83 165.5t-288 55.5h-223
q-123 -43 -179.5 -102.5t-56.5 -149.5z" />
    <glyph glyph-name="uni0122" unicode="&#x122;" horiz-adv-x="1742" 
d="M1487 668h112v-459q-168 -238 -618 -238q-184 0 -334.5 46.5t-252 125t-171 186.5t-100.5 227.5t-31 250.5q0 253 110 445t305.5 294.5t448.5 102.5q358 0 629 -168v-193q-72 138 -244 220.5t-389 82.5q-110 0 -213.5 -28t-199 -90t-166 -152.5t-112.5 -224t-42 -295.5
q0 -152 42.5 -280.5t115 -217.5t168.5 -152t202.5 -92.5t217.5 -29.5q394 0 522 174v465zM737 -557l150 500h151l-293 -500h-8z" />
    <glyph glyph-name="uni0123" unicode="&#x123;" horiz-adv-x="1189" 
d="M453 1214l391 398h10l-238 -398h-163zM848 668q0 134 -79 221.5t-216 87.5q-134 0 -210.5 -83.5t-76.5 -225.5q0 -144 82 -227t205 -83q127 0 211 82.5t84 227.5zM1098 -166q0 -97 -43.5 -171.5t-119.5 -119t-171 -66.5t-205 -22q-228 0 -360.5 81.5t-132.5 203.5
q0 93 92 160t252 92q-127 0 -192.5 45t-65.5 115q0 74 77 119t220 59q-142 29 -222 118.5t-80 219.5q0 171 111.5 259.5t294.5 88.5q101 0 199 -49l403 12v-86l-367 51q77 -46 125 -117t48 -159q0 -161 -113.5 -255t-294.5 -94q-53 0 -102 11q-92 -17 -141.5 -52.5
t-49.5 -82.5q0 -101 199 -101h180q106 0 185.5 -12.5t143.5 -41t97 -80.5t33 -126zM174 -260q0 -112 101.5 -181t277.5 -69q80 0 155.5 15t144 46t110 88t41.5 132q0 110 -83 165.5t-288 55.5h-223q-123 -43 -179.5 -102.5t-56.5 -149.5z" />
    <glyph glyph-name="Hcircumflex" unicode="&#x124;" horiz-adv-x="1724" 
d="M872 1923l281 -229h-25l-260 137l-258 -137h-22l278 229h6zM1364 1612h115v-1612h-115v821h-1004v-821h-114v1612h114v-727h1004v727z" />
    <glyph glyph-name="hcircumflex" unicode="&#x125;" horiz-adv-x="1198" 
d="M205 1612h106v-1612h-106v1612zM709 1638l280 -417h-12l-272 268l-291 -268h-11l299 417h7zM907 0v571q0 120 -16.5 187.5t-54.5 109.5q-70 76 -193 76t-208 -66t-124 -176q34 155 133.5 237.5t233.5 82.5q159 0 246 -90q46 -49 68 -126.5t22 -211.5v-594h-107z" />
    <glyph glyph-name="Hbar" unicode="&#x126;" horiz-adv-x="1724" 
d="M360 885h1004v389h-1004v-389zM360 821v-821h-114v1612h114v-275h1004v275h115v-1612h-115v821h-1004z" />
    <glyph glyph-name="hbar" unicode="&#x127;" horiz-adv-x="1198" 
d="M641 1233h-330v-1233h-106v1233h-170v41h170v338h106v-338h330v-41zM907 0v571q0 120 -16.5 187.5t-54.5 109.5q-70 76 -193 76t-208 -66t-124 -176q34 155 133.5 237.5t233.5 82.5q159 0 246 -90q46 -49 68 -126.5t22 -211.5v-594h-107z" />
    <glyph glyph-name="Itilde" unicode="&#x128;" horiz-adv-x="606" 
d="M496 1835l71 96l11 -6l-72 -180h-365l-75 -94l-11 6l76 178h365zM246 1612h114v-1612h-114v1612z" />
    <glyph glyph-name="itilde" unicode="&#x129;" 
d="M449 1450l71 96l10 -6l-71 -180h-385l-76 -94l-10 6l75 178h386zM205 0v985h106v-985h-106z" />
    <glyph glyph-name="Imacron" unicode="&#x12a;" horiz-adv-x="606" 
d="M80 1747v65h448v-65h-448zM246 1612h114v-1612h-114v1612z" />
    <glyph glyph-name="imacron" unicode="&#x12b;" 
d="M18 1348v69h480v-69h-480zM205 0v985h106v-985h-106z" />
    <glyph glyph-name="Ibreve" unicode="&#x12c;" horiz-adv-x="606" 
d="M299 1679q-38 0 -73 5.5t-72.5 21.5t-65.5 41.5t-47.5 68.5t-22.5 99h64q2 -38 13 -67.5t34 -56.5t66 -41.5t104 -14.5t104 14.5t66 41.5t34 56.5t13 67.5h64q-3 -56 -22.5 -99t-47.5 -68.5t-65.5 -41.5t-72.5 -21.5t-73 -5.5zM246 1612h114v-1612h-114v1612z" />
    <glyph glyph-name="ibreve" unicode="&#x12d;" 
d="M18 1534h64q-5 -126 38.5 -198t137.5 -72t137.5 72t38.5 198h64q0 -149 -57.5 -238.5t-182.5 -89.5t-182.5 89.5t-57.5 238.5zM205 0v985h106v-985h-106z" />
    <glyph glyph-name="Iogonek" unicode="&#x12e;" horiz-adv-x="606" 
d="M340 0h-94v1612h114v-1612q-89 -59 -144.5 -133.5t-55.5 -155.5q0 -65 43 -105.5t103.5 -45t127.5 17.5l2 -4q-75 -61 -182 -61q-83 0 -139 45t-56 127q0 48 21 91t63.5 83t86 70.5t110.5 70.5z" />
    <glyph glyph-name="iogonek" unicode="&#x12f;" 
d="M174 1425q0 35 24.5 59.5t59.5 24.5t59.5 -24.5t24.5 -59.5t-24.5 -59.5t-59.5 -24.5t-59.5 24.5t-24.5 59.5zM291 0h-86v985h106v-985q-89 -59 -144.5 -133.5t-55.5 -155.5q0 -65 43 -105.5t103.5 -45t127.5 17.5l2 -4q-75 -61 -182 -61q-83 0 -139 45t-56 127
q0 48 21 91t63.5 83t86 70.5t110.5 70.5z" />
    <glyph glyph-name="Idot" unicode="&#x130;" horiz-adv-x="606" 
d="M223 1804q0 35 24.5 59.5t59.5 24.5t59.5 -24.5t24.5 -59.5t-24.5 -59.5t-59.5 -24.5t-59.5 24.5t-24.5 59.5zM246 1612h114v-1612h-114v1612z" />
    <glyph glyph-name="dotlessi" unicode="&#x131;" 
d="M205 0v985h106v-985h-106z" />
    <glyph glyph-name="Jcircumflex" unicode="&#x134;" horiz-adv-x="856" 
d="M578 1923l280 -229h-24l-261 137l-258 -137h-22l278 229h7zM526 1612h115v-1112q0 -83 -5 -147.5t-18.5 -127.5t-38 -107t-61.5 -78.5t-91.5 -51.5t-125.5 -17q-121 0 -201 56.5t-80 119.5q0 72 64 72q37 0 59 -21t35 -73q32 -115 135 -115q46 0 76.5 9.5t59 38t44 82.5
t24.5 142.5t9 217.5v1112z" />
    <glyph glyph-name="jcircumflex" unicode="&#x135;" horiz-adv-x="507" 
d="M264 1638l219 -417h-12l-211 247l-229 -247h-11l238 417h6zM197 985h106v-825q0 -495 -278 -721l-5 6q59 62 97 150t54 193.5t21 185.5t5 186v825z" />
    <glyph glyph-name="uni0136" unicode="&#x136;" horiz-adv-x="1415" 
d="M246 1612h114v-1612h-114v1612zM1386 0h-161l-863 823l822 789h104l-792 -756zM535 -557l149 500h152l-293 -500h-8z" />
    <glyph glyph-name="uni0137" unicode="&#x137;" horiz-adv-x="1013" 
d="M205 1612h106v-1612h-106v1612zM870 0l-555 526l559 459h97l-543 -426l586 -559h-144zM328 -557l149 500h152l-293 -500h-8z" />
    <glyph glyph-name="Lacute" unicode="&#x139;" horiz-adv-x="1189" 
d="M545 1915l-404 -221h-22l262 221h164zM246 1612h114v-1551h830v-61h-944v1612z" />
    <glyph glyph-name="lacute" unicode="&#x13a;" 
d="M502 1915l-404 -221h-22l262 221h164zM205 1612h106v-1612h-106v1612z" />
    <glyph glyph-name="uni013B" unicode="&#x13b;" horiz-adv-x="1189" 
d="M246 1612h114v-1551h830v-61h-944v1612zM516 -557l150 500h151l-293 -500h-8z" />
    <glyph glyph-name="uni013C" unicode="&#x13c;" 
d="M205 1612h106v-1612h-106v1612zM41 -557l149 500h152l-293 -500h-8z" />
    <glyph glyph-name="Lcaron" unicode="&#x13d;" horiz-adv-x="1189" 
d="M498 1163l116 449h152l-260 -449h-8zM246 1612h114v-1551h830v-61h-944v1612z" />
    <glyph glyph-name="lcaron" unicode="&#x13e;" horiz-adv-x="487" 
d="M373 1163l116 449h152l-260 -449h-8zM205 1612h106v-1612h-106v1612z" />
    <glyph glyph-name="Ldot" unicode="&#x13f;" horiz-adv-x="1189" 
d="M246 1612h114v-1551h830v-61h-944v1612zM786 827q0 35 24.5 59.5t59.5 24.5t59.5 -24.5t24.5 -59.5t-24.5 -59.5t-59.5 -24.5t-59.5 24.5t-24.5 59.5z" />
    <glyph glyph-name="ldot" unicode="&#x140;" horiz-adv-x="606" 
d="M248 1616h114v-1612h-114v1612zM496 827q0 35 24.5 59.5t59.5 24.5t59.5 -24.5t24.5 -59.5t-24.5 -59.5t-59.5 -24.5t-59.5 24.5t-24.5 59.5z" />
    <glyph glyph-name="Lslash" unicode="&#x141;" horiz-adv-x="1476" 
d="M1190 0h-944v727l-242 -145l-33 55l275 164v811h114v-742l332 199l33 -53l-365 -219v-736h830v-61z" />
    <glyph glyph-name="lslash" unicode="&#x142;" horiz-adv-x="665" 
d="M311 0h-106v770l-148 -90l-32 55l180 109v768h106v-703l154 92l33 -53l-187 -112v-836z" />
    <glyph glyph-name="Nacute" unicode="&#x143;" horiz-adv-x="1759" 
d="M1159 1915l-403 -221h-23l262 221h164zM1427 1612h86v-1680l-1181 1457v-1389h-86v1677l1181 -1468v1403z" />
    <glyph glyph-name="nacute" unicode="&#x144;" horiz-adv-x="1198" 
d="M895 1612l-391 -398h-10l237 398h164zM907 0v571q0 120 -16.5 187.5t-54.5 109.5q-70 76 -193 76t-208 -66t-124 -176q34 155 133.5 237.5t233.5 82.5q159 0 246 -90q46 -49 68 -126.5t22 -211.5v-594h-107zM205 0v985h106v-985h-106z" />
    <glyph glyph-name="uni0145" unicode="&#x145;" horiz-adv-x="1759" 
d="M1427 1612h86v-1680l-1181 1457v-1389h-86v1677l1181 -1468v1403zM674 -557l149 500h152l-293 -500h-8z" />
    <glyph glyph-name="uni0146" unicode="&#x146;" horiz-adv-x="1198" 
d="M907 0v571q0 120 -16.5 187.5t-54.5 109.5q-70 76 -193 76t-208 -66t-124 -176q34 155 133.5 237.5t233.5 82.5q159 0 246 -90q46 -49 68 -126.5t22 -211.5v-594h-107zM205 0v985h106v-985h-106zM395 -557l150 500h151l-293 -500h-8z" />
    <glyph glyph-name="Ncaron" unicode="&#x147;" horiz-adv-x="1759" 
d="M905 1694l-280 229h24l260 -137l258 137h23l-279 -229h-6zM1427 1612h86v-1680l-1181 1457v-1389h-86v1677l1181 -1468v1403z" />
    <glyph glyph-name="ncaron" unicode="&#x148;" horiz-adv-x="1198" 
d="M641 1221l-322 417h13l313 -268l332 268h10l-340 -417h-6zM907 0v571q0 120 -16.5 187.5t-54.5 109.5q-70 76 -193 76t-208 -66t-124 -176q34 155 133.5 237.5t233.5 82.5q159 0 246 -90q46 -49 68 -126.5t22 -211.5v-594h-107zM205 0v985h106v-985h-106z" />
    <glyph glyph-name="Eng" unicode="&#x14a;" horiz-adv-x="1759" 
d="M1427 1612h86v-1452q0 -496 -280 -721l-4 6q175 191 194 596l-1091 1348v-1389h-86v1677l1181 -1468v1403z" />
    <glyph glyph-name="eng" unicode="&#x14b;" horiz-adv-x="1198" 
d="M205 0v985h106v-276q34 155 133.5 237t233.5 82q159 0 246 -90q46 -49 68 -126.5t22 -211.5v-440q0 -494 -279 -721l-4 6q59 62 97 150t54 193.5t20.5 185t4.5 186.5v418q0 120 -16.5 187t-54.5 109q-70 76 -193 76t-208 -66t-124 -175v-709h-106z" />
    <glyph glyph-name="Omacron" unicode="&#x14c;" horiz-adv-x="1918" 
d="M655 1747v65h643v-65h-643zM961 1649q245 0 441.5 -104t310.5 -298t114 -444q0 -188 -66.5 -345t-182 -263t-274.5 -165t-343 -59q-183 0 -343 61t-276 170t-183 267.5t-67 345.5q0 250 115 441.5t311.5 292t442.5 100.5zM961 29q105 0 207.5 27t199.5 88t170 149
t117.5 221.5t44.5 294.5q0 163 -44.5 297t-117.5 222.5t-170 149t-199 87t-208 26.5t-208 -26.5t-199.5 -87t-171 -149t-118.5 -222.5t-45 -297q0 -135 31 -251t86 -199.5t126.5 -148t155.5 -103.5t170 -58.5t173 -19.5z" />
    <glyph glyph-name="omacron" unicode="&#x14d;" horiz-adv-x="1204" 
d="M285 1348v65h643v-65h-643zM96 504q0 240 141.5 385t364.5 145t364.5 -145t141.5 -385q0 -239 -142 -386t-364 -147q-223 0 -364.5 146t-141.5 387zM602 18q92 0 168 42.5t123 112.5t72.5 155.5t25.5 175.5q0 92 -25.5 177t-72.5 154t-122.5 110.5t-168.5 41.5
q-121 0 -211.5 -70.5t-134 -178.5t-43.5 -234q0 -92 25.5 -177.5t72.5 -155t122.5 -111.5t168.5 -42z" />
    <glyph glyph-name="Obreve" unicode="&#x14e;" horiz-adv-x="1918" 
d="M961 1679q-38 0 -73 5.5t-72.5 21.5t-65.5 41.5t-47.5 68.5t-22.5 99h63q2 -38 13 -67.5t34 -56.5t66.5 -41.5t104.5 -14.5t104 14.5t66 41.5t34 56.5t13 67.5h63q-3 -56 -22.5 -99t-47 -68.5t-65.5 -41.5t-72.5 -21.5t-72.5 -5.5zM961 1649q245 0 441.5 -104t310.5 -298
t114 -444q0 -188 -66.5 -345t-182 -263t-274.5 -165t-343 -59q-183 0 -343 61t-276 170t-183 267.5t-67 345.5q0 250 115 441.5t311.5 292t442.5 100.5zM961 29q105 0 207.5 27t199.5 88t170 149t117.5 221.5t44.5 294.5q0 163 -44.5 297t-117.5 222.5t-170 149t-199 87
t-208 26.5t-208 -26.5t-199.5 -87t-171 -149t-118.5 -222.5t-45 -297q0 -135 31 -251t86 -199.5t126.5 -148t155.5 -103.5t170 -58.5t173 -19.5z" />
    <glyph glyph-name="obreve" unicode="&#x14f;" horiz-adv-x="1204" 
d="M860 1534h64q-3 -79 -27 -139.5t-57.5 -95.5t-78 -57t-82.5 -29t-77 -7t-77 7t-82.5 29t-78 57t-57 95.5t-26.5 139.5h63q5 -123 70 -196.5t188 -73.5t188 73.5t70 196.5zM96 504q0 240 141.5 385t364.5 145t364.5 -145t141.5 -385q0 -239 -142 -386t-364 -147
q-223 0 -364.5 146t-141.5 387zM602 18q92 0 168 42.5t123 112.5t72.5 155.5t25.5 175.5q0 92 -25.5 177t-72.5 154t-122.5 110.5t-168.5 41.5q-121 0 -211.5 -70.5t-134 -178.5t-43.5 -234q0 -92 25.5 -177.5t72.5 -155t122.5 -111.5t168.5 -42z" />
    <glyph glyph-name="Ohungarumlaut" unicode="&#x150;" horiz-adv-x="1918" 
d="M1382 1915l-403 -221h-23l263 221h163zM1065 1915l-403 -221h-23l262 221h164zM961 1649q245 0 441.5 -104t310.5 -298t114 -444q0 -188 -66.5 -345t-182 -263t-274.5 -165t-343 -59q-183 0 -343 61t-276 170t-183 267.5t-67 345.5q0 250 115 441.5t311.5 292
t442.5 100.5zM961 29q105 0 207.5 27t199.5 88t170 149t117.5 221.5t44.5 294.5q0 163 -44.5 297t-117.5 222.5t-170 149t-199 87t-208 26.5t-208 -26.5t-199.5 -87t-171 -149t-118.5 -222.5t-45 -297q0 -135 31 -251t86 -199.5t126.5 -148t155.5 -103.5t170 -58.5
t173 -19.5z" />
    <glyph glyph-name="ohungarumlaut" unicode="&#x151;" horiz-adv-x="1204" 
d="M1038 1612l-391 -398h-10l237 398h164zM745 1612l-391 -398h-10l238 398h163zM96 504q0 240 141.5 385t364.5 145t364.5 -145t141.5 -385q0 -239 -142 -386t-364 -147q-223 0 -364.5 146t-141.5 387zM602 18q92 0 168 42.5t123 112.5t72.5 155.5t25.5 175.5
q0 92 -25.5 177t-72.5 154t-122.5 110.5t-168.5 41.5q-121 0 -211.5 -70.5t-134 -178.5t-43.5 -234q0 -92 25.5 -177.5t72.5 -155t122.5 -111.5t168.5 -42z" />
    <glyph glyph-name="OE" unicode="&#x152;" horiz-adv-x="2654" 
d="M961 29q105 0 207.5 27t199.5 88t170 149t117.5 221.5t44.5 294.5q0 163 -44.5 297t-117.5 222.5t-170 149t-199 87t-208 26.5t-208 -26.5t-199.5 -87t-171 -149t-118.5 -222.5t-45 -297q0 -135 31 -251t86 -199.5t126.5 -148t155.5 -103.5t170 -58.5t173 -19.5zM1673 0
v383q-98 -195 -281 -303.5t-431 -108.5q-183 0 -343 61t-276 170t-183 267.5t-67 345.5q0 250 115 441.5t311.5 292t442.5 100.5q247 0 430 -112t282 -312v387h897v-62h-782v-669h704v-62h-704v-758h815v-61h-930z" />
    <glyph glyph-name="oe" unicode="&#x153;" horiz-adv-x="1947" 
d="M1470 989q-148 0 -237.5 -83.5t-120.5 -227.5h655q-7 152 -89.5 231.5t-207.5 79.5zM602 18q92 0 168 42t123 111t72.5 154.5t25.5 176.5q0 92 -25.5 177t-72.5 154t-122.5 110.5t-168.5 41.5q-121 0 -211.5 -70.5t-134 -178.5t-43.5 -234q0 -92 25.5 -177.5t72.5 -154.5
t122.5 -110.5t168.5 -41.5zM1870 186l4 -4q-148 -211 -395 -211q-154 0 -266.5 73t-168.5 208q-57 -134 -172 -207.5t-270 -73.5q-223 0 -364.5 145t-141.5 386q0 240 141.5 385t364.5 145q153 0 268 -72t172 -202q54 130 165.5 203t258.5 73q177 0 288.5 -109.5
t129.5 -287.5h-780q-8 -52 -8 -113q0 -137 47.5 -244t147 -171t237.5 -64q96 0 190 37t152 104z" />
    <glyph glyph-name="Racute" unicode="&#x154;" horiz-adv-x="1492" 
d="M913 1915l-403 -221h-23l263 221h163zM246 1610l311 4q113 2 206.5 -7.5t183 -37t150 -72.5t97.5 -119.5t37 -173.5q0 -194 -131 -302.5t-361 -119.5q212 -7 310.5 -92.5t140.5 -288.5q18 -86 35 -144t44 -115t60 -87.5t82 -45.5t111 -5l2 -4q-26 -12 -74.5 -20.5
t-85.5 -8.5q-52 0 -92.5 18.5t-69.5 51t-54 90t-43 120t-40 157.5q-15 68 -35 119t-43.5 88t-58.5 61.5t-69 39.5t-88 22.5t-102.5 9.5t-123.5 2h-185v-750h-114v1610zM360 1554v-753h179q85 0 158.5 9t150.5 35t131 68.5t88.5 114t34.5 166.5q0 196 -137 283.5t-402 81.5z
" />
    <glyph glyph-name="racute" unicode="&#x155;" horiz-adv-x="727" 
d="M645 1612l-391 -398h-10l237 398h164zM205 0v985h106v-985h-106zM676 1010v-125q-31 8 -80 8q-93 0 -169.5 -47t-115.5 -141q28 105 87 177.5t130 102.5t148 25z" />
    <glyph glyph-name="uni0156" unicode="&#x156;" horiz-adv-x="1492" 
d="M246 1610l311 4q113 2 206.5 -7.5t183 -37t150 -72.5t97.5 -119.5t37 -173.5q0 -194 -131 -302.5t-361 -119.5q212 -7 310.5 -92.5t140.5 -288.5q18 -86 35 -144t44 -115t60 -87.5t82 -45.5t111 -5l2 -4q-26 -12 -74.5 -20.5t-85.5 -8.5q-52 0 -92.5 18.5t-69.5 51
t-54 90t-43 120t-40 157.5q-15 68 -35 119t-43.5 88t-58.5 61.5t-69 39.5t-88 22.5t-102.5 9.5t-123.5 2h-185v-750h-114v1610zM360 1554v-753h179q85 0 158.5 9t150.5 35t131 68.5t88.5 114t34.5 166.5q0 196 -137 283.5t-402 81.5zM557 -557l150 500h151l-293 -500h-8z
" />
    <glyph glyph-name="uni0157" unicode="&#x157;" horiz-adv-x="727" 
d="M205 0v985h106v-985h-106zM676 1010v-125q-31 8 -80 8q-93 0 -169.5 -47t-115.5 -141q28 105 87 177.5t130 102.5t148 25zM68 -557l149 500h152l-293 -500h-8z" />
    <glyph glyph-name="Rcaron" unicode="&#x158;" horiz-adv-x="1492" 
d="M694 1694l-280 229h24l260 -137l258 137h23l-279 -229h-6zM246 1610l311 4q113 2 206.5 -7.5t183 -37t150 -72.5t97.5 -119.5t37 -173.5q0 -194 -131 -302.5t-361 -119.5q212 -7 310.5 -92.5t140.5 -288.5q18 -86 35 -144t44 -115t60 -87.5t82 -45.5t111 -5l2 -4
q-26 -12 -74.5 -20.5t-85.5 -8.5q-52 0 -92.5 18.5t-69.5 51t-54 90t-43 120t-40 157.5q-15 68 -35 119t-43.5 88t-58.5 61.5t-69 39.5t-88 22.5t-102.5 9.5t-123.5 2h-185v-750h-114v1610zM360 1554v-753h179q85 0 158.5 9t150.5 35t131 68.5t88.5 114t34.5 166.5
q0 196 -137 283.5t-402 81.5z" />
    <glyph glyph-name="rcaron" unicode="&#x159;" horiz-adv-x="727" 
d="M420 1221l-322 417h13l313 -268l332 268h10l-340 -417h-6zM205 0v985h106v-985h-106zM676 1010v-125q-31 8 -80 8q-93 0 -169.5 -47t-115.5 -141q28 105 87 177.5t130 102.5t148 25z" />
    <glyph glyph-name="Sacute" unicode="&#x15a;" horiz-adv-x="1263" 
d="M903 1915l-403 -221h-23l262 221h164zM109 104v191q100 -146 228 -206t290 -60q194 0 313 96t119 248q0 81 -24.5 143.5t-78 111.5t-123.5 86.5t-174 76.5l-106 38q-212 76 -309 181t-97 243q0 185 134 290.5t344 105.5q260 0 460 -117v-191q-168 250 -462 250
q-70 0 -132 -16.5t-116 -51t-85.5 -96.5t-31.5 -145q0 -70 22.5 -124.5t69 -95t99.5 -68.5t131 -58l92 -35q47 -17 76 -28.5t75 -31.5t76 -36.5t70 -41.5t65 -49.5t53 -58t43.5 -68.5t26 -79t10.5 -92q0 -194 -146.5 -319.5t-397.5 -125.5q-295 0 -514 133z" />
    <glyph glyph-name="sacute" unicode="&#x15b;" horiz-adv-x="913" 
d="M756 1612l-391 -398h-11l238 398h164zM176 203q24 0 39.5 -14t32.5 -48t22 -41q56 -86 187 -86q120 0 190 55t70 154q0 51 -17.5 89.5t-54.5 66.5t-78 46.5t-104 39.5l-68 22q-141 48 -200.5 115.5t-59.5 163.5q0 111 88 185.5t242 74.5q131 0 224 -46t93 -108
q0 -53 -51 -53q-21 0 -34.5 11.5t-30 41.5t-21.5 37q-48 74 -188 74q-104 0 -166 -52.5t-62 -135.5q0 -84 55.5 -132.5t164.5 -84.5l61 -21q169 -57 238 -124.5t69 -174.5q0 -128 -101 -207.5t-261 -79.5q-147 0 -244.5 52t-97.5 116t63 64z" />
    <glyph glyph-name="Scircumflex" unicode="&#x15c;" horiz-adv-x="1263" 
d="M655 1923l281 -229h-25l-260 137l-258 -137h-22l278 229h6zM109 104v191q100 -146 228 -206t290 -60q194 0 313 96t119 248q0 81 -24.5 143.5t-78 111.5t-123.5 86.5t-174 76.5l-106 38q-212 76 -309 181t-97 243q0 185 134 290.5t344 105.5q260 0 460 -117v-191
q-168 250 -462 250q-70 0 -132 -16.5t-116 -51t-85.5 -96.5t-31.5 -145q0 -70 22.5 -124.5t69 -95t99.5 -68.5t131 -58l92 -35q47 -17 76 -28.5t75 -31.5t76 -36.5t70 -41.5t65 -49.5t53 -58t43.5 -68.5t26 -79t10.5 -92q0 -194 -146.5 -319.5t-397.5 -125.5
q-295 0 -514 133z" />
    <glyph glyph-name="scircumflex" unicode="&#x15d;" horiz-adv-x="913" 
d="M471 1638l322 -417h-13l-313 268l-332 -268h-10l340 417h6zM176 203q24 0 39.5 -14t32.5 -48t22 -41q56 -86 187 -86q120 0 190 55t70 154q0 51 -17.5 89.5t-54.5 66.5t-78 46.5t-104 39.5l-68 22q-141 48 -200.5 115.5t-59.5 163.5q0 111 88 185.5t242 74.5
q131 0 224 -46t93 -108q0 -53 -51 -53q-21 0 -34.5 11.5t-30 41.5t-21.5 37q-48 74 -188 74q-104 0 -166 -52.5t-62 -135.5q0 -84 55.5 -132.5t164.5 -84.5l61 -21q169 -57 238 -124.5t69 -174.5q0 -128 -101 -207.5t-261 -79.5q-147 0 -244.5 52t-97.5 116t63 64z" />
    <glyph glyph-name="Scedilla" unicode="&#x15e;" horiz-adv-x="1263" 
d="M473 -549l-6 12q137 16 204.5 76.5t67.5 136.5q0 48 -25.5 75.5t-72.5 27.5q-52 0 -94 -29l-49 39l96 182q-278 6 -485 133v191q100 -146 228 -206t290 -60q194 0 313 96t119 248q0 81 -24.5 143.5t-78 111.5t-123.5 86.5t-174 76.5l-106 38q-212 76 -309 181t-97 243
q0 185 134 290.5t344 105.5q260 0 460 -117v-191q-168 250 -462 250q-70 0 -132 -16.5t-116 -51t-85.5 -96.5t-31.5 -145q0 -70 22.5 -124.5t69 -95t99.5 -68.5t131 -58l92 -35q47 -17 76 -28.5t75 -31.5t76 -36.5t70 -41.5t65 -49.5t53 -58t43.5 -68.5t26 -79t10.5 -92
q0 -188 -138 -313t-374 -132l-98 -178q54 41 125 41q70 0 113 -36.5t43 -108.5q0 -55 -33 -99.5t-88 -72t-116 -44t-128 -22.5zM594 -29h29h32l11 21h-62z" />
    <glyph glyph-name="scedilla" unicode="&#x15f;" horiz-adv-x="913" 
d="M297 -522l-6 12q137 16 204.5 76.5t67.5 136.5q0 48 -25.5 75t-72.5 27q-54 0 -94 -28l-49 39l94 157q-131 4 -217 55t-86 111q0 64 63 64q24 0 39.5 -14t32.5 -48t22 -41q56 -86 187 -86q120 0 190 55t70 154q0 51 -17.5 89.5t-54.5 66.5t-78 46.5t-104 39.5l-68 22
q-141 48 -200.5 115.5t-59.5 163.5q0 111 88 185.5t242 74.5q131 0 224 -46t93 -108q0 -53 -51 -53q-21 0 -34.5 11.5t-30 41.5t-21.5 37q-48 74 -188 74q-104 0 -166 -52.5t-62 -135.5q0 -84 55.5 -132.5t164.5 -84.5l61 -21q169 -57 238 -124.5t69 -174.5
q0 -122 -95.5 -202t-244.5 -85l-96 -151q54 41 125 41q70 0 113 -37t43 -109q0 -55 -33 -99t-88 -71.5t-116 -44t-128 -22.5z" />
    <glyph glyph-name="Scaron" unicode="&#x160;" horiz-adv-x="1357" 
d="M694 1694l-280 229h24l260 -137l258 137h23l-279 -229h-6zM156 104v191q100 -146 228 -206t290 -60q194 0 313 96t119 248q0 156 -94.5 248t-304.5 170l-107 38q-212 76 -308.5 180.5t-96.5 243.5q0 186 133.5 291t343.5 105q261 0 461 -117v-191q-168 250 -463 250
q-70 0 -132 -16.5t-116 -51t-85.5 -96.5t-31.5 -145q0 -70 22.5 -124.5t69 -95t99.5 -68.5t131 -58l92 -35q47 -17 76 -28.5t75 -31.5t76 -36.5t70 -41.5t65 -49.5t53 -58t43.5 -68.5t26 -79t10.5 -92q0 -194 -146.5 -319.5t-397.5 -125.5q-295 0 -514 133z" />
    <glyph glyph-name="scaron" unicode="&#x161;" horiz-adv-x="913" 
d="M463 1221l-322 417h13l313 -268l332 268h10l-340 -417h-6zM176 203q24 0 39.5 -14t32.5 -48t22 -41q56 -86 187 -86q120 0 190 55t70 154q0 51 -17.5 89.5t-54.5 66.5t-78 46.5t-104 39.5l-68 22q-141 48 -200.5 115.5t-59.5 163.5q0 111 88 185.5t242 74.5
q131 0 224 -46t93 -108q0 -53 -51 -53q-21 0 -34.5 11.5t-30 41.5t-21.5 37q-48 74 -188 74q-104 0 -166 -52.5t-62 -135.5q0 -84 55.5 -132.5t164.5 -84.5l61 -21q169 -57 238 -124.5t69 -174.5q0 -128 -101 -207.5t-261 -79.5q-147 0 -244.5 52t-97.5 116t63 64z" />
    <glyph glyph-name="uni0162" unicode="&#x162;" horiz-adv-x="1179" 
d="M1221 1612v-62h-574v-1550h-115v1550h-573v62h1262zM373 -557l149 500h152l-293 -500h-8z" />
    <glyph glyph-name="uni0163" unicode="&#x163;" horiz-adv-x="714" 
d="M453 -29q-99 0 -157 55t-58 167v751h-166v41h166v229l104 82v-311h320v-41h-320v-729q0 -95 37.5 -136.5t118.5 -41.5q103 0 188 59l4 -6q-104 -119 -237 -119zM217 -557l150 500h151l-293 -500h-8z" />
    <glyph glyph-name="Tcaron" unicode="&#x164;" horiz-adv-x="1179" 
d="M592 1694l-281 229h25l260 -137l258 137h23l-279 -229h-6zM1221 1612v-62h-574v-1550h-115v1550h-573v62h1262z" />
    <glyph glyph-name="tcaron" unicode="&#x165;" horiz-adv-x="727" 
d="M520 1163l117 449h151l-260 -449h-8zM453 -29q-99 0 -157 55t-58 167v751h-166v41h166v229l104 82v-311h320v-41h-320v-729q0 -95 37.5 -136.5t118.5 -41.5q103 0 188 59l4 -6q-104 -119 -237 -119z" />
    <glyph glyph-name="Tbar" unicode="&#x166;" horiz-adv-x="1179" 
d="M532 0v942h-450v64h450v544h-573v62h1262v-62h-574v-544h451v-64h-451v-942h-115z" />
    <glyph glyph-name="tbar" unicode="&#x167;" horiz-adv-x="714" 
d="M453 -29q-99 0 -157 55t-58 167v514h-166v41h166v196h-166v41h166v229l104 82v-311h320v-41h-320v-196h320v-41h-320v-492q0 -95 37.5 -136.5t118.5 -41.5q103 0 188 59l4 -6q-104 -119 -237 -119z" />
    <glyph glyph-name="Utilde" unicode="&#x168;" horiz-adv-x="1667" 
d="M1116 1835l72 96l10 -6l-72 -180h-508l-75 -94l-11 6l76 178h508zM1368 1612h94v-826q0 -189 -14 -291.5t-45 -175.5q-70 -168 -215.5 -258t-356.5 -90q-456 0 -581 365q-24 69 -34.5 170.5t-10.5 312.5v793h114v-801q0 -204 10 -299t33 -158q54 -142 175 -215t299 -73
q355 0 479 280q30 62 41.5 158t11.5 282v826z" />
    <glyph glyph-name="utilde" unicode="&#x169;" horiz-adv-x="1171" 
d="M848 1450l72 96l10 -6l-72 -180h-508l-76 -94l-10 6l76 178h508zM860 0v985h107v-985h-107zM184 985h107v-657q0 -130 63 -204.5t197 -74.5q107 0 189.5 61.5t119.5 157.5q-40 -146 -131 -221.5t-217 -75.5q-164 0 -246 92t-82 263v659z" />
    <glyph glyph-name="Umacron" unicode="&#x16a;" horiz-adv-x="1667" 
d="M526 1747v65h643v-65h-643zM1368 1612h94v-826q0 -189 -14 -291.5t-45 -175.5q-70 -168 -215.5 -258t-356.5 -90q-456 0 -581 365q-24 69 -34.5 170.5t-10.5 312.5v793h114v-801q0 -204 10 -299t33 -158q54 -142 175 -215t299 -73q355 0 479 280q30 62 41.5 158t11.5 282
v826z" />
    <glyph glyph-name="umacron" unicode="&#x16b;" horiz-adv-x="1171" 
d="M268 1348v65h643v-65h-643zM860 0v985h107v-985h-107zM184 985h107v-657q0 -130 63 -204.5t197 -74.5q107 0 189.5 61.5t119.5 157.5q-40 -146 -131 -221.5t-217 -75.5q-164 0 -246 92t-82 263v659z" />
    <glyph glyph-name="Ubreve" unicode="&#x16c;" horiz-adv-x="1667" 
d="M831 1679q-38 0 -72.5 5.5t-72.5 21.5t-65.5 41.5t-47 68.5t-22.5 99h63q2 -38 13 -67.5t34 -56.5t66 -41.5t104 -14.5t104.5 14.5t66.5 41.5t34 56.5t13 67.5h63q-3 -56 -22.5 -99t-47.5 -68.5t-65.5 -41.5t-72.5 -21.5t-73 -5.5zM1368 1612h94v-826q0 -189 -14 -291.5
t-45 -175.5q-70 -168 -215.5 -258t-356.5 -90q-456 0 -581 365q-24 69 -34.5 170.5t-10.5 312.5v793h114v-801q0 -204 10 -299t33 -158q54 -142 175 -215t299 -73q355 0 479 280q30 62 41.5 158t11.5 282v826z" />
    <glyph glyph-name="ubreve" unicode="&#x16d;" horiz-adv-x="1171" 
d="M840 1534h63q-3 -79 -26.5 -139.5t-57 -95.5t-78 -57t-82.5 -29t-77 -7t-77 7t-82.5 29t-78 57t-57.5 95.5t-27 139.5h64q5 -123 70 -196.5t188 -73.5t188 73.5t70 196.5zM860 0v985h107v-985h-107zM184 985h107v-657q0 -130 63 -204.5t197 -74.5q107 0 189.5 61.5
t119.5 157.5q-40 -146 -131 -221.5t-217 -75.5q-164 0 -246 92t-82 263v659z" />
    <glyph glyph-name="Uring" unicode="&#x16e;" horiz-adv-x="1667" 
d="M1044 1841q0 -84 -60.5 -142.5t-147.5 -58.5t-148 58.5t-61 142.5t61 142.5t148 58.5t147.5 -58.5t60.5 -142.5zM981 1841q0 64 -43 106t-102 42q-62 0 -103 -43.5t-41 -104.5t41 -104t103 -43q66 0 105.5 42.5t39.5 104.5zM1368 1612h94v-826q0 -189 -14 -291.5
t-45 -175.5q-70 -168 -215.5 -258t-356.5 -90q-456 0 -581 365q-24 69 -34.5 170.5t-10.5 312.5v793h114v-801q0 -204 10 -299t33 -158q54 -142 175 -215t299 -73q355 0 479 280q30 62 41.5 158t11.5 282v826z" />
    <glyph glyph-name="uring" unicode="&#x16f;" horiz-adv-x="1171" 
d="M784 1378q0 -84 -61 -142t-148 -58t-147.5 58t-60.5 142t60.5 142.5t147.5 58.5t148 -58.5t61 -142.5zM721 1378q0 64 -43.5 106t-102.5 42q-62 0 -102.5 -43.5t-40.5 -104.5t40.5 -104t102.5 -43q66 0 106 42.5t40 104.5zM860 0v985h107v-985h-107zM184 985h107v-657
q0 -130 63 -204.5t197 -74.5q107 0 189.5 61.5t119.5 157.5q-40 -146 -131 -221.5t-217 -75.5q-164 0 -246 92t-82 263v659z" />
    <glyph glyph-name="Uhungarumlaut" unicode="&#x170;" horiz-adv-x="1667" 
d="M1276 1915l-404 -221h-22l262 221h164zM958 1915l-403 -221h-23l263 221h163zM1368 1612h94v-826q0 -189 -14 -291.5t-45 -175.5q-70 -168 -215.5 -258t-356.5 -90q-456 0 -581 365q-24 69 -34.5 170.5t-10.5 312.5v793h114v-801q0 -204 10 -299t33 -158
q54 -142 175 -215t299 -73q355 0 479 280q30 62 41.5 158t11.5 282v826z" />
    <glyph glyph-name="uhungarumlaut" unicode="&#x171;" horiz-adv-x="1171" 
d="M1008 1612l-392 -398h-10l238 398h164zM715 1612l-391 -398h-11l238 398h164zM860 0v985h107v-985h-107zM184 985h107v-657q0 -130 63 -204.5t197 -74.5q107 0 189.5 61.5t119.5 157.5q-40 -146 -131 -221.5t-217 -75.5q-164 0 -246 92t-82 263v659z" />
    <glyph glyph-name="Uogonek" unicode="&#x172;" horiz-adv-x="1667" 
d="M795 -487q-83 0 -139 45t-56 127q0 81 61 148.5t173 137.5h-3q-456 0 -581 365q-24 69 -34.5 170.5t-10.5 312.5v793h114v-801q0 -204 10 -299t33 -158q54 -142 175 -215t299 -73q355 0 479 280q30 62 41.5 158t11.5 282v826h94v-826q0 -189 -14 -291.5t-45 -175.5
q-67 -161 -204.5 -251t-336.5 -97q-162 -130 -162 -260q0 -72 49 -111.5t125 -39.5q52 0 101 18l2 -4q-75 -61 -182 -61z" />
    <glyph glyph-name="uogonek" unicode="&#x173;" horiz-adv-x="1171" 
d="M946 0h-86v985h107v-985q-89 -59 -145 -133.5t-56 -155.5q0 -65 43 -105.5t103.5 -45t127.5 17.5l2 -4q-75 -61 -182 -61q-83 0 -138.5 45t-55.5 127q0 48 20.5 91t63 83t86.5 70.5t110 70.5zM184 985h107v-657q0 -130 63 -204.5t197 -74.5q107 0 189.5 61.5t119.5 157.5
q-40 -146 -131 -221.5t-217 -75.5q-164 0 -246 92t-82 263v659z" />
    <glyph glyph-name="Wcircumflex" unicode="&#x174;" horiz-adv-x="1908" 
d="M963 1923l280 -229h-24l-261 137l-258 -137h-22l278 229h7zM1794 1612h94l-481 -1690l-465 1200l-444 -1200l-478 1690h119l379 -1411l434 1208l455 -1208z" />
    <glyph glyph-name="wcircumflex" unicode="&#x175;" horiz-adv-x="1325" 
d="M688 1638l322 -417h-13l-313 268l-332 -268h-10l340 417h6zM1221 985h88l-369 -1040h-20l-254 735l-260 -735h-21l-369 1040h117l277 -829l274 798l260 -798z" />
    <glyph glyph-name="Ycircumflex" unicode="&#x176;" horiz-adv-x="1275" 
d="M668 1923l280 -229h-24l-260 137l-258 -137h-23l279 229h6zM1163 1612h92l-557 -953v-659h-114v659l-564 953h136l501 -873z" />
    <glyph glyph-name="ycircumflex" unicode="&#x177;" horiz-adv-x="974" 
d="M520 1638l322 -417h-13l-313 268l-332 -268h-10l340 417h6zM442 31l-411 954h121l354 -846l368 846h91l-676 -1522h-82z" />
    <glyph glyph-name="Ydieresis" unicode="&#x178;" horiz-adv-x="1579" 
d="M584 1806q0 31 21 52.5t52 21.5t52.5 -21.5t21.5 -52.5t-21.5 -52t-52.5 -21t-52 21t-21 52zM1020 1806q0 31 21.5 52.5t52.5 21.5t52 -21.5t21 -52.5t-21 -52t-52 -21t-52.5 21t-21.5 52zM1380 1612h93l-558 -953v-659h-114v659l-563 953h135l501 -873z" />
    <glyph glyph-name="Zacute" unicode="&#x179;" horiz-adv-x="1421" 
d="M1022 1915l-404 -221h-22l262 221h164zM205 61h1155v-61h-1340l1160 1550h-1006v62h1182z" />
    <glyph glyph-name="zacute" unicode="&#x17a;" horiz-adv-x="931" 
d="M768 1612l-391 -398h-10l237 398h164zM201 49h676v-49h-836l688 930h-594v55h756z" />
    <glyph glyph-name="Zdotaccent" unicode="&#x17b;" horiz-adv-x="1421" 
d="M643 1804q0 35 24.5 59.5t59.5 24.5t59.5 -24.5t24.5 -59.5t-24.5 -59.5t-59.5 -24.5t-59.5 24.5t-24.5 59.5zM205 61h1155v-61h-1340l1160 1550h-1006v62h1182z" />
    <glyph glyph-name="zdotaccent" unicode="&#x17c;" horiz-adv-x="931" 
d="M424 1425q0 35 24.5 59.5t59.5 24.5t59.5 -24.5t24.5 -59.5t-24.5 -59.5t-59.5 -24.5t-59.5 24.5t-24.5 59.5zM201 49h676v-49h-836l688 930h-594v55h756z" />
    <glyph glyph-name="Zcaron" unicode="&#x17d;" horiz-adv-x="1517" 
d="M846 1694l-281 229h25l260 -137l258 137h22l-278 -229h-6zM285 61h1155v-61h-1340l1160 1550h-1006v62h1182z" />
    <glyph glyph-name="zcaron" unicode="&#x17e;" horiz-adv-x="931" 
d="M522 1221l-321 417h12l313 -268l332 268h10l-340 -417h-6zM201 49h676v-49h-836l688 930h-594v55h756z" />
    <glyph glyph-name="uni018F" unicode="&#x18f;" horiz-adv-x="1542" 
d="M705 -29q-279 0 -456.5 166.5t-197.5 452.5h1282q19 93 19 182q0 131 -26.5 249t-82 219.5t-135 175t-192 115.5t-246.5 42q-174 0 -336 -63.5t-273 -178.5l-6 6q220 312 647 312q168 0 311.5 -61t247 -171.5t162 -273.5t58.5 -359q0 -177 -60.5 -329.5t-164.5 -258
t-247 -165.5t-304 -60zM698 31q232 0 394.5 136.5t226.5 358.5h-1124q2 -122 47 -219t117.5 -156t159 -89.5t179.5 -30.5z" />
    <glyph glyph-name="uni0218" unicode="&#x218;" horiz-adv-x="1263" 
d="M109 104v191q100 -146 228 -206t290 -60q194 0 313 96t119 248q0 81 -24.5 143.5t-78 111.5t-123.5 86.5t-174 76.5l-106 38q-212 76 -309 181t-97 243q0 185 134 290.5t344 105.5q260 0 460 -117v-191q-168 250 -462 250q-70 0 -132 -16.5t-116 -51t-85.5 -96.5
t-31.5 -145q0 -70 22.5 -124.5t69 -95t99.5 -68.5t131 -58l92 -35q47 -17 76 -28.5t75 -31.5t76 -36.5t70 -41.5t65 -49.5t53 -58t43.5 -68.5t26 -79t10.5 -92q0 -194 -146.5 -319.5t-397.5 -125.5q-295 0 -514 133zM410 -557l149 500h152l-293 -500h-8z" />
    <glyph glyph-name="uni0219" unicode="&#x219;" horiz-adv-x="913" 
d="M176 203q24 0 39.5 -14t32.5 -48t22 -41q56 -86 187 -86q120 0 190 55t70 154q0 51 -17.5 89.5t-54.5 66.5t-78 46.5t-104 39.5l-68 22q-141 48 -200.5 115.5t-59.5 163.5q0 111 88 185.5t242 74.5q131 0 224 -46t93 -108q0 -53 -51 -53q-21 0 -34.5 11.5t-30 41.5
t-21.5 37q-48 74 -188 74q-104 0 -166 -52.5t-62 -135.5q0 -84 55.5 -132.5t164.5 -84.5l61 -21q169 -57 238 -124.5t69 -174.5q0 -128 -101 -207.5t-261 -79.5q-147 0 -244.5 52t-97.5 116t63 64zM233 -557l150 500h152l-293 -500h-9z" />
    <glyph glyph-name="uni021A" unicode="&#x21a;" horiz-adv-x="1179" 
d="M1221 1612v-62h-574v-1550h-115v1550h-573v62h1262zM373 -557l149 500h152l-293 -500h-8z" />
    <glyph glyph-name="uni021B" unicode="&#x21b;" horiz-adv-x="714" 
d="M453 -29q-99 0 -157 55t-58 167v751h-166v41h166v229l104 82v-311h320v-41h-320v-729q0 -95 37.5 -136.5t118.5 -41.5q103 0 188 59l4 -6q-104 -119 -237 -119zM217 -557l150 500h151l-293 -500h-8z" />
    <glyph glyph-name="uni0232" unicode="&#x232;" horiz-adv-x="1275" 
d="M336 1747v65h643v-65h-643zM1163 1612h92l-557 -953v-659h-114v659l-564 953h136l501 -873z" />
    <glyph glyph-name="uni0233" unicode="&#x233;" horiz-adv-x="974" 
d="M190 1348v65h644v-65h-644zM442 31l-411 954h121l354 -846l368 846h91l-676 -1522h-82z" />
    <glyph glyph-name="uni0237" unicode="&#x237;" horiz-adv-x="507" 
d="M197 985h106v-825q0 -495 -278 -721l-5 6q59 62 97 150t54 193.5t21 185.5t5 186v825z" />
    <glyph glyph-name="uni0259" unicode="&#x259;" horiz-adv-x="1062" 
d="M510 -29q-178 0 -289 107.5t-125 288.5h778q9 58 9 114q0 137 -47 244t-143.5 171.5t-229.5 64.5q-223 0 -350 -130l-4 5q137 198 399 198q218 0 354.5 -148.5t136.5 -400.5q0 -148 -65 -266.5t-176.5 -183t-247.5 -64.5zM506 16q146 0 237 84t123 226h-653
q4 -152 87 -231t206 -79z" />
    <glyph glyph-name="circumflex" unicode="&#x2c6;" horiz-adv-x="843" 
d="M434 1638l322 -417h-13l-313 268l-332 -268h-10l340 417h6z" />
    <glyph glyph-name="caron" unicode="&#x2c7;" horiz-adv-x="753" 
d="M358 1221l-321 417h12l313 -268l332 268h11l-340 -417h-7z" />
    <glyph glyph-name="breve" unicode="&#x2d8;" horiz-adv-x="851" 
d="M684 1534h64q-3 -79 -27 -139.5t-57.5 -95.5t-78 -57t-82.5 -29t-77 -7t-77 7t-82.5 29t-78 57t-57.5 95.5t-27 139.5h64q5 -123 70 -196.5t188 -73.5t188 73.5t70 196.5z" />
    <glyph glyph-name="dotaccent" unicode="&#x2d9;" horiz-adv-x="440" 
d="M135 1425q0 35 24.5 59.5t59.5 24.5t59.5 -24.5t24.5 -59.5t-24.5 -59.5t-59.5 -24.5t-59.5 24.5t-24.5 59.5z" />
    <glyph glyph-name="ring" unicode="&#x2da;" horiz-adv-x="593" 
d="M506 1378q0 -84 -61 -142t-148 -58t-148 58t-61 142t61 142.5t148 58.5t148 -58.5t61 -142.5zM442 1378q0 64 -43 106t-102 42q-62 0 -102.5 -43.5t-40.5 -104.5t40.5 -104t102.5 -43q66 0 105.5 42.5t39.5 104.5z" />
    <glyph glyph-name="ogonek" unicode="&#x2db;" horiz-adv-x="1077" 
d="M850 -422l2 -4q-75 -61 -182 -61q-83 0 -139 45t-56 127q0 48 21 91t63.5 83t86 70.5t110.5 70.5h20q-89 -59 -145 -133.5t-56 -155.5q0 -65 43 -105.5t104 -45t128 17.5z" />
    <glyph glyph-name="tilde" unicode="&#x2dc;" horiz-adv-x="907" 
d="M692 1450l72 96l10 -6l-72 -180h-507l-76 -94l-10 6l75 178h508z" />
    <glyph glyph-name="hungarumlaut" unicode="&#x2dd;" horiz-adv-x="866" 
d="M772 1612l-391 -398h-10l237 398h164zM479 1612l-391 -398h-10l237 398h164z" />
    <glyph glyph-name="pi" unicode="&#x3c0;" horiz-adv-x="1523" 
d="M176 909v76h1176v-76h-189v-909h-88v909h-624v-909h-97v909h-178z" />
    <glyph glyph-name="Wgrave" unicode="&#x1e80;" horiz-adv-x="1908" 
d="M1118 1694l-403 221h164l262 -221h-23zM1794 1612h94l-481 -1690l-465 1200l-444 -1200l-478 1690h119l379 -1411l434 1208l455 -1208z" />
    <glyph glyph-name="wgrave" unicode="&#x1e81;" horiz-adv-x="1325" 
d="M831 1217l-391 397h164l238 -397h-11zM1221 985h88l-369 -1040h-20l-254 735l-260 -735h-21l-369 1040h117l277 -829l274 798l260 -798z" />
    <glyph glyph-name="Wacute" unicode="&#x1e82;" horiz-adv-x="1908" 
d="M1221 1915l-404 -221h-22l262 221h164zM1794 1612h94l-481 -1690l-465 1200l-444 -1200l-478 1690h119l379 -1411l434 1208l455 -1208z" />
    <glyph glyph-name="wacute" unicode="&#x1e83;" horiz-adv-x="1325" 
d="M924 1612l-392 -398h-10l238 398h164zM1221 985h88l-369 -1040h-20l-254 735l-260 -735h-21l-369 1040h117l277 -829l274 798l260 -798z" />
    <glyph glyph-name="Wdieresis" unicode="&#x1e84;" horiz-adv-x="1908" 
d="M668 1806q0 31 21 52.5t52 21.5t52.5 -21.5t21.5 -52.5t-21.5 -52t-52.5 -21t-52 21t-21 52zM1104 1806q0 31 21.5 52.5t52.5 21.5t52 -21.5t21 -52.5t-21 -52t-52 -21t-52.5 21t-21.5 52zM1794 1612h94l-481 -1690l-465 1200l-444 -1200l-478 1690h119l379 -1411
l434 1208l455 -1208z" />
    <glyph glyph-name="wdieresis" unicode="&#x1e85;" horiz-adv-x="1325" 
d="M827 1407q0 31 21.5 52.5t52.5 21.5t52.5 -21.5t21.5 -52.5t-21.5 -52.5t-52.5 -21.5t-52.5 21.5t-21.5 52.5zM391 1407q0 31 21.5 52.5t52.5 21.5t52.5 -21.5t21.5 -52.5t-21.5 -52.5t-52.5 -21.5t-52.5 21.5t-21.5 52.5zM1221 985h88l-369 -1040h-20l-254 735
l-260 -735h-21l-369 1040h117l277 -829l274 798l260 -798z" />
    <glyph glyph-name="uni1ECA" unicode="&#x1eca;" horiz-adv-x="606" 
d="M246 1612h114v-1612h-114v1612zM217 -315q0 35 24.5 59.5t59.5 24.5t59.5 -24.5t24.5 -59.5t-24.5 -59.5t-59.5 -24.5t-59.5 24.5t-24.5 59.5z" />
    <glyph glyph-name="uni1ECB" unicode="&#x1ecb;" 
d="M174 1425q0 35 24.5 59.5t59.5 24.5t59.5 -24.5t24.5 -59.5t-24.5 -59.5t-59.5 -24.5t-59.5 24.5t-24.5 59.5zM205 0v985h106v-985h-106zM170 -315q0 35 24.5 59.5t59.5 24.5t59.5 -24.5t24.5 -59.5t-24.5 -59.5t-59.5 -24.5t-59.5 24.5t-24.5 59.5z" />
    <glyph glyph-name="uni1ECC" unicode="&#x1ecc;" horiz-adv-x="1918" 
d="M961 1649q245 0 441.5 -104t310.5 -298t114 -444q0 -188 -66.5 -345t-182 -263t-274.5 -165t-343 -59q-183 0 -343 61t-276 170t-183 267.5t-67 345.5q0 250 115 441.5t311.5 292t442.5 100.5zM961 29q105 0 207.5 27t199.5 88t170 149t117.5 221.5t44.5 294.5
q0 163 -44.5 297t-117.5 222.5t-170 149t-199 87t-208 26.5t-208 -26.5t-199.5 -87t-171 -149t-118.5 -222.5t-45 -297q0 -135 31 -251t86 -199.5t126.5 -148t155.5 -103.5t170 -58.5t173 -19.5zM877 -315q0 35 24.5 59.5t59.5 24.5t59 -24.5t24 -59.5t-24 -59.5t-59 -24.5
t-59.5 24.5t-24.5 59.5z" />
    <glyph glyph-name="uni1ECD" unicode="&#x1ecd;" horiz-adv-x="1204" 
d="M96 504q0 240 141.5 385t364.5 145t364.5 -145t141.5 -385q0 -239 -142 -386t-364 -147q-223 0 -364.5 146t-141.5 387zM602 18q92 0 168 42.5t123 112.5t72.5 155.5t25.5 175.5q0 92 -25.5 177t-72.5 154t-122.5 110.5t-168.5 41.5q-121 0 -211.5 -70.5t-134 -178.5
t-43.5 -234q0 -92 25.5 -177.5t72.5 -155t122.5 -111.5t168.5 -42zM510 -315q0 35 24.5 59.5t59.5 24.5t59.5 -24.5t24.5 -59.5t-24.5 -59.5t-59.5 -24.5t-59.5 24.5t-24.5 59.5z" />
    <glyph glyph-name="uni1EE4" unicode="&#x1ee4;" horiz-adv-x="1667" 
d="M1368 1612h94v-826q0 -189 -14 -291.5t-45 -175.5q-70 -168 -215.5 -258t-356.5 -90q-456 0 -581 365q-24 69 -34.5 170.5t-10.5 312.5v793h114v-801q0 -204 10 -299t33 -158q54 -142 175 -215t299 -73q355 0 479 280q30 62 41.5 158t11.5 282v826zM762 -315
q0 35 24.5 59.5t59.5 24.5t59.5 -24.5t24.5 -59.5t-24.5 -59.5t-59.5 -24.5t-59.5 24.5t-24.5 59.5z" />
    <glyph glyph-name="uni1EE5" unicode="&#x1ee5;" horiz-adv-x="1171" 
d="M860 0v985h107v-985h-107zM184 985h107v-657q0 -130 63 -204.5t197 -74.5q107 0 189.5 61.5t119.5 157.5q-40 -146 -131 -221.5t-217 -75.5q-164 0 -246 92t-82 263v659zM457 -315q0 35 24.5 59.5t59.5 24.5t59.5 -24.5t24.5 -59.5t-24.5 -59.5t-59.5 -24.5t-59.5 24.5
t-24.5 59.5z" />
    <glyph glyph-name="Ygrave" unicode="&#x1ef2;" horiz-adv-x="1275" 
d="M803 1694l-404 221h164l262 -221h-22zM1163 1612h92l-557 -953v-659h-114v659l-564 953h136l501 -873z" />
    <glyph glyph-name="ygrave" unicode="&#x1ef3;" horiz-adv-x="974" 
d="M657 1217l-391 397h164l238 -397h-11zM442 31l-411 954h121l354 -846l368 846h91l-676 -1522h-82z" />
    <glyph glyph-name="endash" unicode="&#x2013;" horiz-adv-x="1105" 
d="M129 489v76h848v-76h-848z" />
    <glyph glyph-name="emdash" unicode="&#x2014;" horiz-adv-x="1611" 
d="M129 489v76h1354v-76h-1354z" />
    <glyph glyph-name="quoteleft" unicode="&#x2018;" horiz-adv-x="368" 
d="M297 1612l-117 -449h-151l260 449h8z" />
    <glyph glyph-name="quoteright" unicode="&#x2019;" horiz-adv-x="368" 
d="M76 1163l117 449h151l-260 -449h-8z" />
    <glyph glyph-name="quotesinglbase" unicode="&#x201a;" horiz-adv-x="413" 
d="M35 -397l178 565h152l-322 -565h-8z" />
    <glyph glyph-name="quotedblleft" unicode="&#x201c;" horiz-adv-x="681" 
d="M301 1612l-117 -449h-151l260 449h8zM610 1612l-116 -449h-152l260 449h8z" />
    <glyph glyph-name="quotedblright" unicode="&#x201d;" horiz-adv-x="681" 
d="M76 1163l117 449h151l-260 -449h-8zM385 1163l117 449h151l-260 -449h-8z" />
    <glyph glyph-name="quotedblbase" unicode="&#x201e;" horiz-adv-x="716" 
d="M35 -397l178 565h152l-322 -565h-8zM338 -397l178 565h152l-322 -565h-8z" />
    <glyph glyph-name="dagger" unicode="&#x2020;" horiz-adv-x="1411" 
d="M659 1677h91v-655h569v-76h-569v-1300h-91v1300h-565v76h565v655z" />
    <glyph glyph-name="daggerdbl" unicode="&#x2021;" horiz-adv-x="1411" 
d="M1317 233h-567v-585h-95v585h-561v76h561v678h-561v76h561v612h95v-612h567v-76h-567v-678h567v-76z" />
    <glyph glyph-name="bullet" unicode="&#x2022;" horiz-adv-x="925" 
d="M129 530q0 135 96.5 231.5t231.5 96.5q144 0 242 -96t98 -232q0 -145 -97.5 -242.5t-242.5 -97.5q-136 0 -232 98t-96 242z" />
    <glyph glyph-name="ellipsis" unicode="&#x2026;" horiz-adv-x="1277" 
d="M127 74q0 43 29.5 72.5t72.5 29.5t73 -29.5t30 -72.5t-30 -73t-73 -30t-72.5 30t-29.5 73zM537 74q0 43 29.5 72.5t72.5 29.5t72.5 -29.5t29.5 -72.5t-29.5 -73t-72.5 -30t-72.5 30t-29.5 73zM944 74q0 43 30 72.5t73 29.5t72.5 -29.5t29.5 -72.5t-29.5 -73t-72.5 -30
t-73 30t-30 73z" />
    <glyph glyph-name="perthousand" unicode="&#x2030;" horiz-adv-x="2615" 
d="M1497 1612l-1069 -1612h-90l1065 1612h94zM129 1227q0 166 93.5 268t242.5 102q148 0 242 -102.5t94 -267.5t-94 -268t-242 -103t-242 103t-94 268zM221 1227q0 -137 70 -216t174 -79t174 79t70 216t-70 216t-174 79t-174 -79t-70 -216zM1815 342q0 166 93 268.5
t242 102.5q148 0 242 -103t94 -268t-94 -268t-242 -103t-241.5 103t-93.5 268zM1020 342q0 166 93.5 268.5t242.5 102.5q148 0 242 -103t94 -268t-94 -268t-242 -103t-242 103t-94 268zM1907 342q0 -138 69.5 -216.5t173.5 -78.5t174 79t70 216t-70 216t-174 79
t-173.5 -78.5t-69.5 -216.5zM1112 342q0 -137 70 -216t174 -79t173.5 78.5t69.5 216.5t-69.5 216.5t-173.5 78.5t-174 -79t-70 -216z" />
    <glyph glyph-name="guilsinglleft" unicode="&#x2039;" horiz-adv-x="616" 
d="M496 70l-437 428v8l435 426h24l-307 -430l307 -432h-22z" />
    <glyph glyph-name="guilsinglright" unicode="&#x203a;" horiz-adv-x="616" 
d="M518 498l-436 -428h-23l308 432l-308 430h25l434 -426v-8z" />
    <glyph glyph-name="fraction" unicode="&#x2044;" horiz-adv-x="1263" 
d="M1188 1612l-1069 -1612h-90l1065 1612h94z" />
    <glyph glyph-name="Euro" unicode="&#x20ac;" horiz-adv-x="1519" 
d="M1423 289l2 -170q-97 -72 -228.5 -110t-276.5 -38q-125 0 -230.5 31.5t-182 86t-134.5 131t-93 164t-51 187.5h-182v70h172q-4 66 -4 102q0 63 6 121h-174v70h184q49 271 231 426.5t447 155.5q281 0 500 -134l2 -170q-77 125 -196.5 187.5t-309.5 62.5
q-98 0 -185.5 -31.5t-162.5 -93.5t-128.5 -165.5t-74.5 -237.5h498v-70h-506q-6 -61 -6 -127q0 -34 4 -96h508v-70h-500q40 -264 198 -404t376 -140q387 0 497 262z" />
    <glyph glyph-name="trademark" unicode="&#x2122;" horiz-adv-x="2000" 
d="M844 1612v-41h-344v-869h-94v869h-347v41h785zM1823 702h-94l-27 809l-316 -809h-12l-321 773l-31 -773h-47l37 910h88l307 -748l283 748h102z" />
    <glyph glyph-name="Omega" unicode="&#x2126;" horiz-adv-x="1904" 
d="M1139 0v74q77 26 150 67t144 106t123.5 143.5t84.5 185t32 225.5q0 152 -44 281t-116 218t-166.5 151.5t-195 92t-201.5 29.5q-103 0 -205.5 -29.5t-197 -91.5t-167 -150t-116 -214t-43.5 -273q0 -122 32 -230.5t85 -188.5t124.5 -145.5t145.5 -107t154 -67.5v-76h-674
v76h490q-193 93 -321 295.5t-128 435.5q0 183 63.5 341t173 267.5t261 171.5t323.5 62q170 0 321 -64t261 -176t173.5 -272t63.5 -344q0 -229 -125.5 -426.5t-316.5 -290.5h490v-76h-678z" />
    <glyph glyph-name="partialdiff" unicode="&#x2202;" horiz-adv-x="1210" 
d="M584 1030q156 0 274.5 -90.5t169.5 -284.5q-51 451 -391 688q-135 92 -320 154q5 13 14.5 40.5t14.5 39.5q213 -68 375 -190.5t254 -280.5q129 -220 129 -516q0 -120 -30.5 -228.5t-90 -197t-158 -141t-223.5 -52.5q-113 0 -207.5 44.5t-155.5 118.5t-94.5 168.5
t-33.5 197.5q0 119 40 220.5t106.5 168t151.5 104t175 37.5zM596 952q-161 0 -274 -124.5t-113 -323.5q0 -201 112 -329t277 -128q97 0 174 37.5t123.5 100t71 138.5t24.5 158q0 84 -25.5 166t-72.5 151t-124.5 111.5t-172.5 42.5z" />
    <glyph glyph-name="increment" unicode="&#x2206;" horiz-adv-x="1290" 
d="M643 1204l621 -1204h-1237zM643 1028l-489 -952h974z" />
    <glyph glyph-name="product" unicode="&#x220f;" horiz-adv-x="1789" 
d="M170 1536v76h1452v-76h-188v-1729h188v-75h-459v75h180v1729h-892v-1729h178v-75h-459v75h190v1729h-190z" />
    <glyph glyph-name="summation" unicode="&#x2211;" horiz-adv-x="1495" 
d="M645 805l-561 809h1212v-469h-90v393h-960l502 -733l-535 -729h1014v393h90v-469h-1268z" />
    <glyph glyph-name="minus" unicode="&#x2212;" horiz-adv-x="1187" 
d="M129 489v76h930v-76h-930z" />
    <glyph glyph-name="radical" unicode="&#x221a;" horiz-adv-x="1468" 
d="M68 727v76h317l250 -686l516 1683h496v-76h-430l-578 -1839l-317 842h-254z" />
    <glyph glyph-name="infinity" unicode="&#x221e;" horiz-adv-x="1665" 
d="M129 475q0 130 91.5 212.5t238.5 82.5q104 0 190.5 -50.5t186.5 -168.5q89 113 175.5 166t194.5 53q146 0 238 -83t92 -212q0 -131 -89.5 -214t-236.5 -83q-104 0 -194.5 58.5t-179.5 173.5q-94 -115 -186.5 -172.5t-194.5 -57.5q-147 0 -236.5 82.5t-89.5 212.5z
M899 481q78 -107 151 -161t160 -54q96 0 161 60.5t65 148.5t-66 148.5t-178 60.5q-77 0 -144.5 -48.5t-148.5 -154.5zM229 475q0 -85 65.5 -147t168.5 -62q84 0 156 50.5t153 158.5q-81 103 -150 156t-153 53q-106 0 -173 -58t-67 -151z" />
    <glyph glyph-name="integral" unicode="&#x222b;" horiz-adv-x="600" 
d="M256 -356v1714q0 48 5 82.5t20.5 69t43.5 55.5t75.5 34t113.5 13h18v-84q-102 -2 -144 -35.5t-42 -124.5v-1724q0 -57 -9 -96t-35 -75.5t-79.5 -54.5t-134.5 -18h-18v82q100 2 143 36.5t43 125.5z" />
    <glyph glyph-name="approxequal" unicode="&#x2248;" horiz-adv-x="1402" 
d="M401 838q57 0 123 -21t126 -51l119 -59.5t120 -50.5t110 -21q129 0 203 168l76 -27q-76 -219 -277 -219q-71 0 -158.5 31.5t-155.5 69t-147 69t-137 31.5q-132 0 -202 -178l-76 28q40 116 111.5 173t164.5 57zM401 469q57 0 123 -21t126 -50.5t119 -59.5t120 -51t110 -21
q128 0 203 170l76 -28q-77 -220 -277 -220q-71 0 -158.5 31.5t-155.5 69t-147 69t-137 31.5q-132 0 -202 -178l-76 29q80 229 276 229z" />
    <glyph glyph-name="notequal" unicode="&#x2260;" horiz-adv-x="1187" 
d="M1059 303h-508l-121 -303h-86l121 303h-336v76h367l116 293h-483v76h514l102 256h86l-102 -256h330v-76h-361l-116 -293h477v-76z" />
    <glyph glyph-name="lessequal" unicode="&#x2264;" horiz-adv-x="1292" 
d="M129 578v88l1034 364v-100l-930 -307l930 -340v-105zM152 0v76h1011v-76h-1011z" />
    <glyph glyph-name="greaterequal" unicode="&#x2265;" horiz-adv-x="1294" 
d="M1165 666v-88l-1034 -400v105l930 340l-930 307v100zM1143 76v-76h-1012v76h1012z" />
    <glyph glyph-name="lozenge" unicode="&#x25ca;" horiz-adv-x="1206" 
d="M596 -102l-508 870l508 889l522 -889zM1010 768l-414 707l-401 -707l403 -694z" />
    <glyph glyph-name="uniF6C3" unicode="&#xf6c3;" horiz-adv-x="436" 
d="M68 -557l149 500h152l-293 -500h-8z" />
    <glyph glyph-name="NULL" horiz-adv-x="0" 
 />
    <glyph glyph-name="acute.case" horiz-adv-x="1024" 
d="M725 1915l-403 -221h-23l262 221h164z" />
    <glyph glyph-name="breve.case" horiz-adv-x="1024" 
d="M512 1679q-38 0 -73 5.5t-72.5 21.5t-65.5 41.5t-47.5 68.5t-22.5 99h64q2 -38 13 -67.5t34 -56.5t66 -41.5t104 -14.5t104 14.5t66 41.5t34 56.5t13 67.5h64q-3 -56 -22.5 -99t-47.5 -68.5t-65.5 -41.5t-72.5 -21.5t-73 -5.5z" />
    <glyph glyph-name="caron.case" horiz-adv-x="1024" 
d="M510 1694l-281 229h25l260 -137l258 137h23l-279 -229h-6z" />
    <glyph glyph-name="cedilla.case" horiz-adv-x="1024" 
d="M463 -8h61l-108 -199q54 41 125 41q70 0 112.5 -36.5t42.5 -108.5q0 -55 -33 -99.5t-87.5 -72t-115.5 -44t-128 -22.5l-6 12q137 16 204.5 76.5t67.5 136.5q0 48 -25.5 75.5t-72.5 27.5q-52 0 -94 -29l-50 39z" />
    <glyph glyph-name="circumflex.case" horiz-adv-x="1024" 
d="M514 1923l281 -229h-25l-260 137l-258 -137h-23l279 229h6z" />
    <glyph glyph-name="dieresis.case" horiz-adv-x="1024" 
d="M219 1806q0 31 21.5 52.5t52.5 21.5t52.5 -21.5t21.5 -52.5t-21.5 -52t-52.5 -21t-52.5 21t-21.5 52zM655 1806q0 31 21.5 52.5t52.5 21.5t52.5 -21.5t21.5 -52.5t-21.5 -52t-52.5 -21t-52.5 21t-21.5 52z" />
    <glyph glyph-name="dot" 
d="M174 1425q0 35 24.5 59.5t59.5 24.5t59.5 -24.5t24.5 -59.5t-24.5 -59.5t-59.5 -24.5t-59.5 24.5t-24.5 59.5z" />
    <glyph glyph-name="dotaccent.case" horiz-adv-x="1024" 
d="M428 1812q0 35 24.5 59.5t59.5 24.5t59.5 -24.5t24.5 -59.5t-24.5 -59t-59.5 -24t-59.5 24t-24.5 59z" />
    <glyph glyph-name="eight.case" horiz-adv-x="1327" 
d="M662 -29q-150 0 -268 47t-190.5 145.5t-72.5 235.5q0 70 22.5 133.5t71 123.5t135 110.5t205.5 83.5l-18 10q-66 34 -116.5 71t-97.5 89.5t-72 123.5t-25 156q0 147 119.5 251t316.5 104q210 0 322 -90.5t112 -233.5q0 -286 -383 -420l98 -49q85 -43 146.5 -85
t116.5 -98.5t83.5 -128.5t28.5 -157q0 -59 -19 -117t-61.5 -113.5t-103 -98t-151.5 -68t-199 -25.5zM645 950l78 -39q135 63 208 170.5t73 241.5q0 138 -91.5 210.5t-244.5 72.5q-155 0 -236.5 -77.5t-81.5 -209.5q0 -67 23.5 -124.5t67 -102t92.5 -78t112 -64.5zM664 23
q192 0 301.5 91.5t109.5 252.5q0 131 -77 219t-244 170l-187 94q-175 -67 -251 -177t-76 -274q0 -181 114.5 -278.5t309.5 -97.5z" />
    <glyph glyph-name="five.case" horiz-adv-x="1292" 
d="M362 1602h766l-18 -105h-702l-111 -586q139 119 371 119q225 0 360 -136t135 -353q0 -257 -148.5 -413.5t-406.5 -156.5q-108 0 -206 31.5t-159.5 76.5t-97.5 92.5t-36 82.5q0 30 19 46.5t52 16.5q12 0 22.5 -3t20 -11t15.5 -13t14 -19t11 -19t11.5 -23.5t10.5 -21.5
q84 -189 319 -189q72 0 136 17.5t119 55t94.5 93.5t62 136.5t22.5 179.5q0 106 -34.5 188.5t-94 132.5t-134.5 75.5t-161 25.5q-271 0 -407 -215l-10 4z" />
    <glyph glyph-name="four.case" horiz-adv-x="1421" 
d="M821 0v487h-766l-8 17l875 1184h14v-1110h407v-91h-407v-487h-115zM174 578h647v872z" />
    <glyph glyph-name="grave.case" horiz-adv-x="1024" 
d="M702 1694l-403 221h164l262 -221h-23z" />
    <glyph glyph-name="hungarumlaut.case" horiz-adv-x="1024" 
d="M885 1915l-404 -221h-22l262 221h164zM567 1915l-403 -221h-23l262 221h164z" />
    <glyph glyph-name="macron.case" horiz-adv-x="1024" 
d="M190 1747v65h644v-65h-644z" />
    <glyph glyph-name="nine.case" horiz-adv-x="1304" 
d="M184 -80l-2 8q411 125 629 380.5t236 604.5q-44 -167 -155 -270.5t-286 -103.5q-63 0 -125.5 16t-127 56t-113.5 100t-80 156t-31 216q0 163 64.5 291.5t184.5 201.5t277 73q110 0 199 -36.5t148.5 -98t99 -147.5t57 -181.5t17.5 -202.5q0 -426 -262.5 -706t-729.5 -357z
M627 606q97 0 177.5 41.5t132 111.5t79.5 159t28 186q0 135 -44.5 245t-135.5 179t-215 69q-95 0 -171.5 -40.5t-124 -110t-72.5 -159.5t-25 -193q0 -77 12.5 -146.5t40.5 -132.5t70.5 -109t105.5 -73t142 -27z" />
    <glyph glyph-name="ogonek.case" horiz-adv-x="1024" 
d="M698 -422l2 -4q-75 -61 -182 -61q-83 0 -138.5 45t-55.5 127q0 48 20.5 91t63 83t86.5 70.5t110 70.5h21q-89 -59 -145 -133.5t-56 -155.5q0 -72 49 -111.5t125 -39.5q50 0 100 18z" />
    <glyph glyph-name="one.case" horiz-adv-x="800" 
d="M524 0h-114v1460q-167 -11 -342 8v7q346 20 438 170h18v-1645z" />
    <glyph glyph-name="ring.case" horiz-adv-x="1024" 
d="M721 1821q0 -84 -61 -142.5t-148 -58.5t-148 58.5t-61 142.5t61 142t148 58t148 -58t61 -142zM657 1821q0 64 -43 105.5t-102 41.5q-62 0 -102.5 -43t-40.5 -104t40.5 -104.5t102.5 -43.5q66 0 105.5 43t39.5 105z" />
    <glyph glyph-name="seven.case" horiz-adv-x="1155" 
d="M1077 1499h-987v105h1071l8 -11l-1017 -1706l-113 68z" />
    <glyph glyph-name="six.case" horiz-adv-x="1304" 
d="M1098 1700l2 -8q-408 -124 -616 -379t-226 -608q45 169 155.5 272.5t288.5 103.5q66 0 129.5 -16t127 -56t111 -100t77 -156t29.5 -216q0 -249 -143.5 -407.5t-379.5 -158.5q-110 0 -199 36.5t-148.5 99t-100 148.5t-58.5 181t-18 201q0 426 254.5 703.5t714.5 359.5z
M678 1014q-129 0 -226 -72t-144.5 -183.5t-47.5 -242.5q0 -135 44.5 -245t135.5 -179t215 -69q95 0 171.5 40.5t124.5 110t73 159.5t25 193q0 77 -12.5 146.5t-40.5 132.5t-70.5 109t-105.5 73t-142 27z" />
    <glyph glyph-name="three.case" horiz-adv-x="1208" 
d="M496 -29q-93 0 -179.5 25.5t-143.5 63t-91.5 78.5t-34.5 75q0 33 19.5 49.5t50.5 16.5q17 0 31 -6t25.5 -20t18 -25t16.5 -32t15 -30q77 -150 283 -150q185 0 303.5 106.5t118.5 301.5q0 188 -126.5 294.5t-332.5 106.5q-102 0 -178 -22v16q112 51 188 91.5t145 88
t109 93.5t63 102t23 121q0 118 -77 187t-207 69q-143 0 -248.5 -75.5t-149.5 -213.5l-8 2q35 171 154.5 268t291.5 97t271.5 -85.5t99.5 -217.5q0 -144 -112 -256t-314 -183q80 2 156.5 -13t146 -50t121 -86t82.5 -126t31 -165q0 -219 -154.5 -357.5t-406.5 -138.5z" />
    <glyph glyph-name="tilde.case" horiz-adv-x="1024" 
d="M764 1835l72 96l10 -6l-72 -180h-508l-76 -94l-10 6l76 178h508z" />
    <glyph glyph-name="two.case" horiz-adv-x="1243" 
d="M1165 88v-88h-1142l-7 14q331 283 516 482q95 102 157 178.5t120 168.5t85.5 185t27.5 191q0 156 -85.5 253t-240.5 97q-186 0 -294 -114t-101 -329h-8q-24 234 99.5 378.5t336.5 144.5q187 0 306.5 -115t119.5 -305q0 -306 -373 -676q-177 -180 -543 -465h1026z" />
    <glyph glyph-name="zero.case" horiz-adv-x="1439" 
d="M721 -29q-288 0 -440 220t-152 622t152 619t440 217q287 0 438.5 -217t151.5 -619t-151.5 -622t-438.5 -220zM721 1599q-83 0 -151.5 -25.5t-127.5 -84t-99.5 -148t-63.5 -223.5t-23 -305q0 -213 34.5 -368.5t98 -247t146 -134.5t186.5 -43q102 0 184 43t146 134
t98.5 247.5t34.5 368.5q0 171 -23 305t-63.5 223.5t-99.5 148t-127 84t-150 25.5z" />
    </font>
</defs>
</svg>
